<?xml version="1.0" standalone="no"?>
<!DOCTYPE svg PUBLIC "-//W3C//DTD SVG 20010904//EN"
 "http://www.w3.org/TR/2001/REC-SVG-20010904/DTD/svg10.dtd">
<svg version="1.0" xmlns="http://www.w3.org/2000/svg"
 width="689.000000pt" height="1000.000000pt" viewBox="0 0 689.000000 1000.000000"
 preserveAspectRatio="xMidYMid meet">

<g transform="translate(0.000000,1000.000000) scale(0.100000,-0.100000)"
fill="#000000" stroke="none">
<path d="M0 7285 c0 -1712 4 -2715 10 -2715 5 0 71 -9 147 -19 76 -11 173 -20
217 -21 43 0 86 -5 96 -10 9 -5 25 -9 36 -10 10 0 49 -3 85 -6 56 -5 67 -3 73
11 3 10 1 23 -5 31 -6 7 -9 23 -7 36 4 29 34 36 41 8 4 -14 12 -19 29 -18 18
3 23 -1 21 -19 -5 -43 117 -71 162 -37 12 9 30 12 46 9 15 -4 30 -1 34 4 11
18 43 12 59 -10 14 -20 21 -21 88 -15 40 3 127 11 192 17 66 5 131 12 145 14
14 2 35 5 45 7 10 2 21 -2 23 -8 5 -15 -128 -36 -302 -49 -121 -9 -204 -34
-118 -36 l38 -1 -43 -20 c-40 -18 -42 -21 -25 -33 17 -13 17 -14 -2 -21 -27
-11 -45 -30 -45 -48 0 -21 -24 -20 -41 0 -7 9 -25 21 -39 26 l-25 10 25 11
c23 11 22 12 -21 15 -25 1 -58 -2 -73 -8 l-28 -10 30 -53 c39 -68 69 -83 134
-68 77 17 88 15 204 -49 79 -45 124 -77 165 -120 60 -65 72 -69 152 -51 155
35 187 44 187 52 0 5 11 9 24 9 12 0 38 5 57 12 44 14 183 94 199 113 7 8 29
15 50 15 21 0 43 7 50 15 7 8 26 15 42 15 16 0 45 7 65 15 19 8 43 15 53 15 9
0 22 12 29 26 8 18 17 24 27 20 12 -4 15 -2 11 9 -9 23 12 29 35 9 15 -14 19
-27 15 -51 -3 -18 -2 -33 4 -33 5 0 9 3 9 8 0 4 10 52 22 107 14 66 21 139 22
215 l1 115 43 -3 c23 -1 42 2 42 7 0 17 94 122 122 137 28 15 37 7 17 -13 -7
-7 -14 -56 -17 -110 -4 -98 9 -198 44 -317 18 -62 18 -66 -2 -38 -8 12 -20 20
-25 17 -5 -4 -6 2 -2 12 6 17 5 17 -15 -1 -28 -24 -28 -35 3 -68 30 -32 32
-41 6 -33 -11 3 -22 1 -26 -5 -3 -5 -10 -10 -15 -10 -15 0 -74 63 -114 123
-22 31 -42 54 -45 51 -3 -3 -8 -40 -12 -82 -7 -90 -42 -210 -78 -267 -14 -22
-29 -41 -33 -43 -6 -3 54 -86 102 -142 8 -9 39 -30 69 -46 30 -16 68 -42 85
-59 30 -29 30 -30 9 -33 -16 -2 -23 -10 -23 -25 0 -12 -5 -29 -10 -37 -8 -13
-11 -12 -24 5 -9 11 -16 26 -16 33 0 6 -4 12 -10 12 -14 0 -12 -20 5 -50 8
-14 14 -43 15 -64 0 -49 -8 -42 -18 14 -12 72 -32 62 -32 -16 0 -59 -3 -70
-26 -90 -20 -19 -29 -22 -44 -14 -26 14 -26 14 -39 -30 -6 -21 -24 -54 -39
-71 -15 -18 -26 -35 -26 -38 3 -14 -9 -31 -26 -36 -17 -5 -70 -95 -70 -120 0
-7 -9 -34 -21 -60 -12 -26 -22 -58 -24 -72 -5 -52 -117 -130 -205 -144 -25 -4
-60 -10 -77 -14 -19 -3 -33 -2 -33 3 0 5 17 12 38 16 35 5 41 11 72 72 32 65
33 67 26 164 -3 54 -12 115 -18 136 -16 48 -38 57 -38 15 0 -40 -16 -81 -32
-81 -16 0 -88 -96 -88 -117 0 -9 -8 -23 -19 -32 -26 -22 -18 -81 10 -74 15 4
18 2 12 -13 -16 -45 -36 -66 -60 -61 -14 3 -27 -2 -32 -11 -7 -13 -10 -12 -20
6 -7 12 -16 22 -22 22 -25 0 -73 -46 -91 -87 -11 -25 -41 -66 -66 -93 -100
-103 -132 -140 -132 -154 0 -18 -38 -104 -50 -111 -5 -3 -5 -18 0 -34 11 -40
-3 -131 -21 -131 -7 0 -9 12 -5 35 10 53 0 75 -35 75 -22 0 -29 -5 -29 -20 0
-29 -23 -110 -31 -110 -16 0 -18 17 -7 58 6 23 7 57 4 76 -13 67 -99 117 -111
64 -2 -13 -6 -34 -7 -48 -4 -31 -21 -30 -28 2 -3 13 -13 24 -21 26 -20 4 -77
-53 -95 -95 -8 -17 -18 -34 -24 -38 -12 -7 -12 -4 -1 51 7 38 5 44 -19 68
l-27 25 -11 -24 c-7 -14 -17 -25 -23 -25 -12 0 -4 46 17 99 l14 34 -41 -6
c-22 -3 -57 -17 -78 -31 -20 -14 -42 -26 -49 -26 -6 0 -16 -18 -22 -40 -12
-44 -36 -60 -91 -60 -20 0 -29 5 -29 16 0 13 7 15 30 11 16 -4 30 -4 30 -2 0
9 -62 115 -67 115 -2 0 -13 -5 -24 -10 -29 -16 -24 5 7 29 15 12 35 21 45 21
31 0 120 71 136 107 12 30 12 38 -2 67 -9 19 -26 37 -38 40 -36 10 -105 7
-112 -5 -14 -21 -57 -30 -94 -18 -53 17 -60 28 -15 24 l39 -3 1 57 1 57 -29
-4 c-16 -2 -28 0 -28 6 0 13 47 21 110 20 25 0 63 7 85 17 22 10 45 19 50 19
6 1 25 15 43 32 46 45 42 78 -18 118 -31 20 -67 20 -115 0 -20 -8 -46 -14 -58
-12 -14 2 3 14 56 41 44 22 77 45 77 53 0 8 -15 39 -34 68 -39 62 -54 67 -179
58 -45 -3 -77 -1 -77 5 0 5 29 24 64 41 36 18 79 44 95 58 l31 26 0 131 c0 73
5 166 11 208 12 73 11 78 -14 133 -33 72 -139 202 -171 210 -14 3 -30 20 -41
41 -9 20 -22 38 -28 40 -7 2 -32 10 -57 16 l-45 13 45 6 c25 4 65 5 90 3 34
-2 40 -1 25 6 -11 5 -37 10 -57 10 -42 1 -60 19 -33 33 9 6 26 19 36 29 24 24
25 24 32 -1 4 -14 0 -20 -11 -20 -15 -1 -15 -2 1 -11 25 -15 37 -3 37 40 l0
38 -58 12 c-31 6 -100 16 -152 21 -52 6 -114 13 -137 17 l-43 6 0 -2267 0
-2266 3445 0 3445 0 0 1108 -1 1107 -24 -30 c-32 -38 -32 -29 0 26 l25 44 0
1248 0 1247 -30 0 c-33 0 -35 -2 -19 -32 13 -24 -1 -38 -42 -38 -14 0 -31 -6
-37 -12 -10 -10 -17 -7 -35 15 -32 40 -64 28 -69 -25 -2 -23 1 -42 8 -46 6 -4
13 -14 16 -22 2 -8 15 -15 29 -15 19 0 23 -5 22 -23 -2 -13 4 -25 12 -29 19
-7 22 -5 30 29 6 24 4 28 -34 39 -56 17 -53 35 5 31 31 -3 47 -9 52 -21 3 -9
14 -23 24 -32 24 -22 24 -49 -1 -42 -10 3 -22 0 -25 -6 -10 -16 -71 -13 -113
4 -47 20 -73 12 -74 -23 -1 -63 -11 -64 -66 -12 -29 28 -53 54 -53 58 0 5 -18
22 -40 37 -22 15 -40 34 -40 41 0 15 12 18 23 8 12 -12 87 -9 92 4 3 8 -6 12
-25 12 -17 0 -30 5 -30 10 0 6 13 10 29 10 20 0 34 8 46 26 20 30 12 43 -15
26 -20 -12 -100 -7 -132 10 -36 18 -14 97 23 83 20 -7 43 10 36 28 -3 9 -14
13 -29 10 -15 -3 -33 3 -48 17 l-25 21 40 -6 c22 -4 45 -11 51 -16 18 -15 114
-24 114 -11 0 6 -7 15 -16 20 -52 29 115 87 179 63 21 -8 27 -17 27 -41 0 -46
42 -84 83 -76 18 4 38 7 44 8 10 1 13 542 13 2585 l0 2583 -3445 0 -3445 0 0
-2715z m2657 609 c23 -36 42 -49 131 -89 57 -27 136 -71 175 -99 109 -76 299
-280 289 -309 -6 -20 41 -75 97 -112 33 -22 61 -43 61 -47 0 -3 -12 -11 -27
-17 l-28 -11 27 5 c14 3 33 8 42 11 23 9 20 -9 -5 -32 -17 -16 -49 -75 -49
-91 0 -3 8 -2 18 2 9 4 32 8 50 10 18 2 39 9 48 16 12 10 19 8 36 -11 l22 -23
-35 -26 c-42 -31 -152 -142 -146 -148 3 -2 41 21 86 51 45 31 90 56 101 56 10
0 20 5 22 11 3 10 78 23 78 13 0 -2 -37 -22 -81 -45 -133 -67 -246 -144 -266
-182 -79 -151 -102 -189 -155 -259 -57 -74 -104 -169 -91 -182 8 -8 -16 -35
-57 -63 -107 -72 -126 -83 -139 -78 -14 6 -41 -11 -41 -26 0 -15 20 -10 80 20
32 16 60 28 63 25 2 -3 21 4 41 16 44 24 56 25 56 4 0 -15 -57 -73 -71 -74
-16 0 -229 -126 -279 -163 -49 -37 -52 -42 -32 -45 13 -2 31 3 41 12 21 19
211 116 228 116 17 0 17 -15 1 -28 -7 -5 -44 -27 -83 -47 -81 -43 -103 -61
-64 -52 31 8 97 38 167 77 49 28 67 29 40 2 -9 -9 -9 -12 1 -12 8 0 1 -10 -15
-22 -16 -13 -30 -26 -32 -30 -2 -5 -11 -8 -20 -9 -10 0 -12 -3 -5 -5 6 -3 53
15 104 41 50 25 94 44 97 41 12 -13 -99 -98 -177 -136 -130 -64 -248 -98 -362
-106 -54 -4 -99 -11 -99 -15 0 -5 -8 -9 -18 -9 -10 0 -50 -16 -90 -35 -162
-77 -293 -96 -425 -58 -57 16 -59 15 -103 -6 -57 -29 -79 -22 -28 8 25 16 34
26 25 29 -8 3 -19 -1 -25 -9 -12 -15 -51 -39 -63 -39 -5 0 8 14 27 31 l34 31
-24 20 -25 20 25 -7 c14 -4 34 -7 45 -6 26 0 89 67 81 86 -6 17 9 21 19 5 10
-16 28 -12 59 14 l30 23 -35 17 c-42 19 -189 17 -229 -4 -66 -35 -67 -35 -46
-11 11 11 27 21 37 21 14 0 15 4 6 24 -8 17 -25 27 -62 35 -27 7 -61 17 -75
21 -73 27 -82 31 -78 35 3 3 28 1 57 -5 48 -9 56 -8 104 20 76 42 127 51 196
34 31 -8 66 -19 77 -25 24 -12 94 4 94 22 0 5 7 9 16 9 22 0 92 40 98 57 4 9
-6 13 -37 14 -39 1 -38 2 17 10 32 5 67 16 78 25 18 17 17 18 -21 40 -22 12
-48 25 -58 27 -10 3 18 3 62 0 l80 -5 62 84 c33 45 86 123 117 173 l55 90 -29
18 c-16 10 -41 19 -56 20 -23 2 -32 -5 -49 -34 -67 -119 -107 -158 -171 -170
-26 -5 -55 -15 -63 -23 -30 -27 -68 -30 -105 -7 -19 12 -38 32 -42 44 -3 12
-18 34 -32 49 -49 53 -15 37 47 -22 35 -33 67 -60 70 -60 4 0 16 6 26 14 18
13 16 17 -44 82 -35 38 -79 76 -97 85 -45 21 -55 32 -21 24 32 -9 33 -6 7 45
-26 51 -85 90 -152 100 l-53 8 48 1 c81 2 162 -47 195 -118 16 -33 21 -36 65
-39 57 -4 158 27 206 62 38 28 35 32 -75 81 -135 61 -197 96 -264 150 -36 29
-75 58 -87 64 -13 6 -23 17 -23 23 0 6 -7 20 -17 30 -20 22 -9 37 15 20 30
-22 135 -73 201 -98 40 -15 93 -26 145 -29 114 -7 190 -26 194 -49 4 -16 -2
-17 -65 -11 -37 4 -66 5 -63 2 3 -3 36 -19 72 -36 l67 -30 33 25 c74 54 218
104 218 75 0 -6 -4 -11 -8 -11 -5 0 -16 -6 -26 -13 -15 -11 -11 -13 31 -15 50
-2 187 -20 213 -28 13 -5 13 -6 0 -15 -9 -5 -51 -7 -100 -3 -76 5 -92 3 -150
-19 l-65 -26 92 0 c83 -1 95 -3 120 -26 21 -18 24 -24 11 -25 -9 0 -18 5 -20
12 -3 9 -14 7 -41 -5 -63 -30 -57 -41 19 -34 37 3 70 10 72 15 2 6 26 8 61 5
70 -7 99 7 163 75 42 44 68 95 56 107 -2 2 -31 -2 -63 -10 -33 -8 -74 -14 -92
-15 -17 0 -35 -5 -38 -10 -8 -14 -67 -3 -122 21 -23 11 -57 19 -75 19 -24 0
-29 3 -18 10 17 11 18 10 -45 45 -27 16 -63 39 -80 51 -98 72 -295 143 -408
147 -42 1 -77 5 -77 9 0 13 87 19 215 14 130 -5 142 -7 255 -58 24 -11 58 -21
75 -22 16 0 32 -4 35 -7 10 -12 70 -28 70 -18 0 5 -5 9 -10 9 -6 0 -22 11 -35
24 -14 14 -46 40 -72 57 -103 70 -240 181 -288 231 -46 48 -47 50 -12 25 104
-78 400 -207 473 -207 l25 0 -23 33 c-12 17 -44 58 -70 89 -58 69 -159 235
-108 178 60 -68 185 -192 203 -202 10 -5 21 -7 24 -4 5 5 1 13 -61 127 -40 74
-90 220 -100 293 -3 27 -16 65 -28 85 -12 19 -23 41 -24 47 -4 28 -38 84 -74
123 -22 24 -40 46 -40 49 0 13 132 -125 157 -164z m-147 -181 c0 -5 -12 -9
-27 -10 -19 -1 -22 1 -12 8 17 11 39 12 39 2z m1371 -213 c45 0 52 -17 12 -26
-16 -4 -38 -12 -49 -20 l-22 -13 22 -44 c20 -42 63 -87 50 -52 -4 9 0 15 9 15
9 0 18 13 22 32 7 30 8 29 31 -38 25 -72 62 -115 146 -169 38 -25 56 -45 40
-45 -5 0 -20 8 -33 19 -13 10 -50 31 -83 47 -32 15 -73 45 -90 66 -18 21 -36
35 -39 31 -4 -3 -7 -28 -7 -55 0 -46 2 -49 48 -82 26 -20 83 -49 127 -66 129
-49 167 -72 199 -117 16 -24 31 -41 34 -39 4 4 -25 48 -58 88 -8 10 -20 18
-27 18 -7 0 -13 7 -13 15 0 18 12 19 28 3 6 -6 14 -9 18 -6 3 4 -4 16 -15 27
-25 25 -26 31 -6 31 9 0 20 -11 24 -24 5 -13 16 -26 24 -29 7 -3 31 -30 51
-61 22 -33 42 -54 48 -50 7 5 9 1 5 -9 -4 -10 6 -41 23 -73 29 -56 29 -57 15
-112 -11 -40 -12 -59 -4 -68 15 -19 3 -48 -31 -74 -31 -24 -40 -50 -17 -50 20
0 61 -70 48 -83 -17 -17 -13 -27 12 -27 12 0 35 -9 51 -19 l29 -19 -48 -14
c-65 -20 -130 -87 -206 -215 -33 -56 -64 -105 -69 -108 -21 -13 -21 64 0 134
34 111 7 108 -47 -6 -13 -29 -26 -53 -28 -53 -6 0 27 115 41 143 23 44 105
171 118 182 7 6 22 27 34 47 30 48 37 168 18 288 l-14 85 -1 -120 c-2 -173
-18 -242 -74 -306 -25 -28 -63 -89 -86 -135 -41 -82 -61 -109 -61 -81 0 25 61
129 113 195 62 79 87 159 87 282 0 47 -5 92 -10 100 -7 10 -10 -18 -10 -88 0
-142 -12 -178 -96 -304 -70 -104 -96 -162 -108 -238 l-6 -35 16 34 c19 43 27
35 15 -15 -30 -124 -58 -199 -73 -198 -21 2 -28 -38 -11 -62 7 -10 13 -12 13
-6 0 7 5 12 10 12 6 0 10 -12 10 -26 0 -14 14 -45 30 -70 17 -24 29 -44 27
-44 -2 0 -19 14 -37 32 -22 20 -35 27 -38 19 -2 -6 5 -20 17 -30 12 -10 21
-22 21 -27 0 -5 9 -15 20 -22 12 -7 18 -17 15 -22 -10 -17 -44 -11 -66 11 -11
11 -23 18 -26 15 -3 -3 -6 -58 -7 -123 -1 -144 -15 -175 -108 -252 -35 -28
-79 -72 -98 -96 -19 -25 -40 -45 -46 -45 -6 0 -18 -18 -27 -40 -11 -29 -21
-40 -36 -40 -12 0 -21 -3 -21 -6 0 -12 91 -141 131 -184 32 -36 36 -38 16 -10
-13 19 -30 45 -36 57 -10 19 -9 22 4 17 8 -4 15 -1 15 5 0 6 -4 11 -10 11 -5
0 -10 8 -10 17 0 14 5 12 26 -10 38 -41 42 -25 5 21 -32 41 -39 85 -21 127 7
15 9 10 9 -23 1 -47 12 -74 44 -109 24 -27 37 -29 37 -8 0 24 17 17 43 -17 29
-39 43 -78 28 -78 -18 0 -13 -15 25 -79 34 -58 53 -79 40 -46 -8 22 10 18 34
-7 17 -18 24 -20 39 -11 22 14 41 0 41 -29 0 -10 6 -18 14 -18 7 0 28 -3 45
-6 l32 -7 -2 74 c-2 41 0 80 5 87 12 20 -4 93 -22 99 -10 3 -35 13 -57 23 -62
26 -176 61 -185 55 -4 -2 -15 4 -25 15 -17 18 -17 22 -1 62 10 24 24 54 33 67
8 13 25 53 38 90 37 104 110 276 138 324 42 72 116 164 165 208 54 47 294 209
311 209 6 0 14 -12 17 -27 4 -16 12 -32 18 -36 8 -6 7 -10 -2 -14 -7 -3 -25
-15 -40 -28 -16 -13 -54 -35 -85 -49 -31 -14 -57 -27 -57 -30 0 -6 43 2 75 14
38 14 65 12 65 -5 0 -8 7 -15 15 -15 17 0 20 -16 5 -25 -18 -11 -11 -25 13
-25 12 0 28 -4 36 -9 16 -10 6 -31 -15 -31 -8 0 -14 -7 -14 -15 0 -20 12 -19
71 6 34 15 49 27 49 40 0 11 5 19 10 19 15 0 12 -36 -4 -49 -7 -6 -38 -25 -67
-41 -45 -25 -50 -30 -28 -30 14 0 50 13 80 30 30 16 62 30 71 30 21 0 28 12
34 53 7 61 16 88 27 84 13 -4 35 -62 37 -97 0 -14 8 -34 18 -45 15 -18 28 -20
127 -17 61 1 139 5 175 8 l65 7 95 91 c137 131 145 137 166 116 8 -8 -1 -24
-27 -52 -33 -37 -109 -167 -109 -188 0 -18 30 -17 68 2 26 12 49 17 62 13 20
-6 20 -8 6 -24 -9 -10 -16 -26 -16 -37 0 -11 -7 -30 -16 -42 -16 -23 -13 -52
6 -52 5 0 10 9 10 20 0 22 15 27 26 9 3 -6 1 -16 -5 -22 -6 -6 -11 -19 -11
-30 0 -13 -5 -17 -19 -12 -17 5 -18 0 -13 -72 2 -43 11 -92 19 -110 20 -44 23
-81 7 -94 -8 -6 -14 -21 -14 -32 0 -11 -6 -28 -13 -36 -23 -28 -60 -170 -54
-212 4 -33 2 -38 -16 -41 -16 -2 -7 -12 43 -45 64 -44 90 -52 90 -31 0 6 11 1
25 -12 21 -19 32 -22 79 -18 40 3 57 1 60 -9 5 -13 -30 -53 -46 -53 -4 0 -25
-12 -46 -27 -21 -16 -62 -39 -91 -53 l-53 -24 -36 21 c-20 11 -38 25 -40 31
-1 5 18 20 43 33 69 34 75 47 40 75 -36 29 -42 30 -50 4 -3 -11 -23 -38 -45
-60 -31 -32 -35 -41 -24 -51 8 -6 14 -17 14 -23 0 -6 -4 -5 -9 3 -6 9 -11 10
-15 3 -7 -12 28 -35 37 -25 4 3 11 -5 16 -18 5 -13 18 -32 29 -43 17 -14 19
-22 10 -36 -9 -14 -6 -27 15 -65 28 -50 33 -80 17 -105 -8 -12 -10 -11 -10 6
0 49 -64 35 -74 -16 -3 -16 -8 -43 -12 -59 -3 -19 -1 -30 9 -34 15 -6 32 -71
22 -87 -3 -5 -22 7 -43 28 -38 38 -174 132 -191 132 -15 0 -21 -28 -12 -57 5
-15 14 -54 21 -86 13 -65 42 -92 64 -61 15 20 44 13 52 -13 15 -45 70 -149 86
-161 12 -9 18 -26 18 -53 l0 -39 -38 3 c-45 5 -66 15 -75 40 -4 9 -18 22 -32
27 -14 5 -25 14 -25 19 0 5 -9 11 -21 14 -18 5 -20 2 -14 -16 12 -39 18 -147
8 -160 -6 -7 -7 -42 -2 -91 8 -78 0 -116 -22 -116 -18 0 -21 30 -5 55 15 23
15 31 2 80 -8 30 -26 69 -40 86 -14 17 -26 37 -26 44 0 7 -16 30 -35 49 -19
20 -35 40 -35 45 0 5 -20 29 -45 54 -25 26 -45 48 -45 51 0 3 9 10 21 17 17 8
31 7 66 -6 24 -9 47 -15 50 -12 13 14 -60 67 -114 82 -32 9 -65 23 -73 30 -8
7 -24 15 -36 19 -11 3 -30 20 -42 36 -24 31 -50 38 -70 18 -9 -9 -12 -8 -12 7
0 10 -3 15 -7 12 -9 -10 -33 49 -33 79 0 27 -25 43 -42 26 -8 -8 -7 -20 5 -44
8 -18 14 -35 11 -39 -2 -4 10 -20 27 -36 39 -36 150 -172 153 -187 5 -29 18
-56 27 -56 5 0 9 -6 9 -14 0 -7 7 -19 15 -26 8 -7 15 -23 15 -36 0 -14 13 -33
35 -51 19 -15 39 -39 45 -54 6 -15 22 -31 36 -37 24 -11 33 -32 14 -32 -5 0
-10 5 -10 10 0 13 -37 13 -45 0 -4 -6 3 -26 15 -45 19 -31 20 -36 5 -41 -9 -4
-25 2 -36 12 -17 15 -20 26 -15 57 5 31 2 44 -21 73 -15 20 -38 40 -51 45 -13
5 -26 18 -29 28 -3 11 -14 22 -25 24 -21 6 -21 17 -3 82 5 16 -4 29 -34 53
-24 19 -41 27 -41 20 0 -8 -3 -9 -8 -3 -11 16 -68 53 -83 55 -48 7 -47 -4 14
-98 26 -40 47 -76 47 -81 0 -5 9 -11 21 -14 18 -5 19 -8 7 -26 -14 -23 -62
-29 -74 -10 -4 7 -22 9 -48 6 -23 -3 -71 0 -106 7 -48 10 -69 11 -79 3 -17
-14 -41 -18 -41 -6 0 4 -7 6 -15 3 -8 -4 -15 -1 -15 7 0 7 -3 9 -7 5 -4 -3 9
-20 28 -36 19 -16 29 -29 23 -30 -6 0 -22 9 -35 21 -13 11 -34 29 -47 40 -13
11 -20 25 -16 32 4 7 4 9 -1 5 -10 -10 -67 50 -62 65 2 6 -9 22 -25 35 -17 14
-28 34 -29 50 -1 15 -5 2 -10 -28 -18 -111 -71 -309 -90 -335 -12 -16 -42
-183 -36 -199 12 -29 55 -48 122 -50 36 -2 68 -6 71 -8 2 -3 -16 -11 -41 -17
-48 -12 -58 -10 -158 25 -20 8 -45 14 -53 14 -14 0 -14 -2 -3 -16 7 -9 24 -20
37 -25 15 -6 22 -15 19 -23 -9 -23 17 -37 80 -43 32 -3 65 -9 73 -14 22 -12
-114 -11 -207 2 -122 16 -123 16 -123 44 0 37 53 245 89 350 42 121 81 275 81
320 0 78 -107 400 -162 485 -19 31 -63 103 -98 160 -35 58 -93 140 -129 184
-36 43 -67 82 -67 87 -1 5 -2 22 -3 38 -1 24 -6 30 -32 35 -45 9 -55 -3 -25
-31 14 -13 26 -28 26 -33 0 -5 18 -33 40 -62 22 -29 40 -61 40 -70 0 -9 -12
-27 -27 -39 -20 -15 -22 -20 -8 -14 37 15 75 18 75 6 0 -7 -46 -33 -102 -59
-402 -183 -539 -290 -599 -470 -31 -93 -29 -178 7 -267 27 -68 28 -75 26 -240
-2 -162 0 -173 25 -237 15 -39 30 -65 36 -61 7 4 8 -1 3 -12 -4 -11 21 -105
68 -249 85 -261 146 -463 146 -480 0 -6 9 -17 19 -23 17 -10 33 -6 104 27 47
22 91 40 98 40 7 0 9 3 6 7 -8 7 11 33 25 33 6 0 8 -7 4 -15 -3 -8 -2 -15 2
-15 14 0 161 59 204 82 37 19 40 23 21 26 -27 4 -30 17 -7 26 26 10 46 7 38
-5 -7 -12 11 -10 62 6 17 5 23 1 29 -17 4 -13 7 -26 6 -30 -1 -5 4 -8 9 -8 6
0 10 -4 10 -8 0 -17 -81 -52 -245 -105 -203 -65 -284 -102 -362 -164 l-58 -46
48 7 c26 3 67 17 90 30 23 13 58 27 77 31 19 4 53 17 75 30 22 13 79 35 125
49 47 13 147 50 224 81 l138 57 35 -34 c19 -18 60 -71 91 -118 54 -80 57 -88
60 -155 3 -61 7 -71 23 -72 30 -3 50 39 56 119 6 80 9 90 24 68 16 -25 2 -143
-22 -194 -21 -41 -22 -49 -10 -69 13 -20 13 -21 -3 -8 -9 8 -18 12 -19 10 -33
-43 -67 -126 -67 -164 0 -50 -18 -60 -44 -24 -11 16 -20 19 -38 13 -12 -4 -56
-6 -97 -6 -41 1 -90 -2 -110 -8 -105 -28 -287 -70 -303 -70 -11 0 -17 -4 -14
-9 4 -5 2 -11 -3 -13 -10 -3 7 -107 20 -122 4 -5 27 1 51 12 72 35 199 71 273
78 91 8 187 -20 260 -76 29 -22 54 -40 57 -40 15 0 37 96 41 178 2 52 10 99
16 105 16 16 14 62 -4 77 -8 7 -15 20 -15 29 0 9 12 -4 27 -29 15 -25 30 -46
35 -48 12 -5 10 -42 -2 -42 -5 0 -10 6 -10 13 0 8 -4 7 -10 -3 -5 -8 -9 -40
-9 -70 1 -49 2 -51 9 -22 4 18 9 35 11 37 2 2 4 -82 4 -187 0 -164 -2 -191
-16 -198 -15 -9 -15 -14 2 -66 25 -75 23 -99 -3 -49 -14 26 -22 59 -23 97 0
31 -4 60 -8 64 -4 4 -7 15 -7 24 0 23 -109 113 -174 144 -38 18 -79 28 -138
32 -73 5 -93 3 -162 -20 -43 -14 -87 -26 -97 -26 -12 0 -33 -19 -51 -45 -18
-25 -40 -45 -50 -45 -10 0 -18 4 -18 8 0 18 -93 35 -158 28 -92 -10 -400 -86
-427 -106 -5 -4 -28 -13 -50 -20 -22 -7 -79 -35 -127 -62 -48 -28 -92 -47 -97
-44 -6 4 -13 23 -16 44 -14 92 -49 224 -61 229 -7 3 -10 16 -7 34 2 17 -2 40
-10 52 -7 12 -24 56 -36 97 -26 86 -95 210 -117 210 -12 0 -13 13 -8 78 4 58
2 88 -10 121 -9 24 -16 64 -15 90 1 47 3 47 13 -1 5 -20 10 -25 27 -21 14 4
18 11 14 22 -4 9 -9 59 -12 111 -4 83 -2 101 17 145 27 60 39 44 15 -20 -21
-53 -15 -140 16 -219 10 -28 19 -57 19 -64 0 -21 92 -218 111 -237 13 -13 12
21 -1 46 -8 15 -7 19 5 19 25 0 17 29 -15 59 -21 19 -31 39 -34 66 -6 57 -23
135 -35 168 -6 16 -11 54 -11 85 0 68 28 122 103 202 46 48 50 50 63 33 12
-17 13 -17 14 0 0 9 5 17 11 17 7 0 8 11 4 30 -10 45 1 36 31 -25 15 -30 29
-53 31 -51 3 2 -3 18 -11 35 -9 17 -21 42 -26 57 -15 39 7 20 31 -28 28 -55
36 -41 10 17 -23 52 -25 65 -13 65 5 0 14 -16 22 -35 15 -38 33 -41 38 -7 2
13 -6 31 -21 44 -23 22 -24 28 -20 95 6 82 1 111 -26 141 -11 14 -19 38 -19
63 -1 22 -4 54 -7 70 -8 35 16 69 47 69 13 0 18 -7 18 -29 0 -16 14 -110 31
-208 16 -98 30 -210 30 -248 0 -94 3 -99 64 -80 27 8 51 12 54 10 4 -4 -55
-32 -103 -49 -33 -12 -11 -16 25 -5 48 15 122 27 112 19 -12 -12 -162 -70
-179 -70 -9 0 -13 -4 -10 -9 11 -17 236 64 236 85 0 18 -30 85 -45 100 -7 8
-20 14 -28 14 -41 0 -77 43 -77 90 0 11 -6 20 -14 20 -7 0 -16 14 -20 31 -9
46 -7 109 3 109 10 0 21 94 14 121 -7 26 -18 24 -20 -2 -4 -43 -20 -41 -32 5
-14 55 -14 96 -1 96 6 0 10 4 10 9 0 5 -21 12 -47 16 -62 9 -83 21 -83 46 0
18 4 20 28 13 15 -4 47 -7 72 -8 39 0 45 3 48 23 3 19 0 22 -17 16 -18 -5 -21
-2 -21 22 0 15 -3 51 -6 80 -6 50 -6 52 20 59 43 10 30 19 -29 19 -39 0 -59 5
-65 15 -20 32 -12 41 38 38 49 -3 76 15 30 20 -34 4 -49 23 -50 63 -1 22 6 38
22 51 27 22 18 38 -10 20 -23 -14 -25 -5 -6 21 15 20 42 23 49 5 10 -29 16 1
6 35 -5 20 -13 72 -18 115 -7 76 -14 79 -25 12 -15 -86 -44 -78 -96 25 -35 69
-35 70 -35 205 l0 135 38 75 c89 174 202 272 387 339 19 7 44 17 55 21 11 5
28 11 37 14 10 3 32 28 49 56 32 53 36 55 58 41 27 -17 131 84 131 127 0 21
-16 13 -71 -35 l-53 -48 22 36 c12 20 22 39 22 43 0 10 -28 7 -122 -10 -84
-15 -88 -17 -88 -43 0 -34 -10 -45 -38 -48 -20 -3 -22 -1 -11 20 7 12 17 25
23 29 21 14 -4 20 -49 14 -38 -6 -50 -13 -70 -44 -14 -21 -29 -59 -34 -86 l-9
-48 27 6 26 5 -25 -11 c-14 -7 -27 -15 -30 -18 -3 -3 -30 -14 -60 -24 -30 -11
-73 -28 -95 -39 -60 -29 -185 -109 -185 -118 0 -9 -84 -69 -96 -69 -17 0 75
84 137 126 37 24 70 44 73 44 4 0 19 9 34 20 15 11 59 31 97 45 70 24 70 24
79 69 5 25 7 48 4 51 -3 3 -31 -8 -63 -25 -59 -31 -85 -37 -85 -20 0 6 7 10
15 10 8 0 15 4 15 9 0 5 13 12 29 16 33 7 71 39 71 60 0 16 -43 20 -98 9 -24
-5 -33 -13 -38 -38 l-8 -31 -6 30 c-9 40 2 49 84 71 59 15 72 23 97 57 16 22
29 34 29 27 0 -19 24 4 49 46 l20 34 -36 15 c-19 8 -37 15 -39 15 -2 0 -29 16
-61 35 -32 19 -65 35 -73 35 -8 0 -36 -11 -62 -25 -35 -18 -62 -25 -105 -25
-52 0 -56 -2 -42 -15 11 -11 37 -16 88 -17 86 -2 75 -11 -40 -32 -65 -12 -151
-16 -367 -16 l-281 0 -88 -29 c-48 -17 -89 -28 -91 -26 -18 17 124 86 253 122
l100 28 -112 3 c-105 2 -167 -6 -238 -33 -15 -6 -17 -5 -9 4 6 6 42 21 80 32
60 18 93 21 249 20 172 -2 184 -1 250 24 85 32 171 78 207 113 24 22 28 23 34
8 5 -12 10 -14 19 -6 7 5 38 19 69 30 53 18 67 16 47 -6 -12 -13 -23 -64 -14
-64 5 0 38 27 75 60 36 33 69 60 72 60 17 0 2 -40 -24 -65 -16 -16 -30 -32
-30 -37 0 -21 27 -2 96 67 41 42 79 73 84 70 6 -4 5 -13 -2 -25 -19 -29 -4
-34 46 -15 25 10 55 15 67 12 12 -3 38 1 58 10 20 8 50 17 68 18 17 2 42 6 54
10 19 6 16 -1 -19 -42 -57 -68 -166 -170 -191 -178 -24 -7 -26 -17 -10 -46 8
-15 14 -18 23 -10 27 22 174 88 278 125 58 21 114 46 123 56 15 17 14 18 -28
24 -25 4 -51 15 -60 24 -8 9 -43 73 -77 142 -34 68 -95 174 -135 235 -40 62
-82 130 -94 153 -20 38 -40 142 -41 205 0 33 29 38 32 5 0 -13 2 -27 3 -33 2
-5 3 -31 4 -57 1 -33 7 -54 20 -67 10 -10 25 -36 32 -57 7 -22 21 -47 30 -56
10 -10 20 -26 24 -37 6 -21 72 -65 78 -53 10 17 29 114 23 119 -3 4 -6 -2 -6
-13 0 -18 -1 -18 -13 2 -6 12 -20 33 -31 48 -23 33 -15 73 19 86 14 5 40 25
59 43 44 44 62 51 84 29 32 -32 71 -52 100 -52 43 0 122 30 122 46 0 10 14 14
54 14 30 0 57 -4 60 -9 3 -5 20 -11 38 -14 96 -17 99 -18 92 -41 -10 -34 51
41 77 94 27 57 22 121 -16 205 -15 33 -29 61 -30 63 -7 8 -172 72 -185 72 -15
0 -118 64 -180 112 -14 11 -47 49 -75 85 -27 37 -59 71 -70 77 -10 6 -46 30
-79 54 -55 39 -58 42 -32 42 16 0 45 -10 65 -22 l36 -22 -40 37 c-22 20 -47
43 -56 51 -9 9 -27 17 -40 17 -16 1 -10 4 16 10 98 21 186 -15 261 -106 53
-66 245 -215 274 -215 8 1 -1 9 -21 20 -38 20 -343 299 -336 306 12 12 59 -21
105 -71 91 -103 155 -130 160 -67 1 21 -6 34 -28 50 -16 13 -30 30 -30 40 0
15 -3 14 -18 -4 -9 -12 -24 -24 -32 -26 -19 -7 -125 96 -115 112 3 5 39 10 81
10 68 0 90 9 63 26 -15 9 11 26 29 19 8 -3 31 -5 53 -5z m89 -19 c0 -14 -18
-23 -31 -15 -8 4 -7 9 2 15 18 11 29 11 29 0z m130 -130 c0 -11 -5 -23 -11
-27 -15 -9 -33 12 -26 30 9 23 37 20 37 -3z m146 -69 c-4 -3 -11 0 -16 8 -15
24 -11 33 6 15 9 -9 13 -19 10 -23z m-413 -3 c10 -11 16 -23 13 -27 -7 -6 -46
27 -46 40 0 14 15 9 33 -13z m-2072 -114 c26 -25 43 -45 36 -45 -7 0 -33 20
-57 45 -24 25 -40 45 -36 45 5 0 31 -20 57 -45z m1993 -335 c-57 -59 -140
-117 -151 -107 -11 12 175 166 201 167 5 0 -17 -27 -50 -60z m-384 -65 c22
-14 40 -32 40 -40 0 -19 -18 -10 -70 34 -43 37 -24 40 30 6z m450 -50 c0 -8 5
-15 10 -15 6 0 10 5 10 10 0 6 7 10 15 10 17 0 19 -9 6 -29 -13 -20 -91 -30
-119 -15 l-23 12 27 21 c31 25 74 28 74 6z m-476 -41 c4 -10 13 -13 25 -9 11
3 22 2 25 -3 7 -11 -26 -22 -66 -22 -30 0 -43 13 -34 35 7 20 42 19 50 -1z
m156 -33 c0 -5 3 -16 6 -25 3 -9 2 -16 -4 -16 -5 0 -12 11 -14 25 -3 14 -1 25
3 25 5 0 9 -4 9 -9z m-1234 -256 c-10 -8 -23 -12 -28 -9 -14 9 2 24 25 24 21
-1 21 -1 3 -15z m2244 -151 c0 -8 -4 -12 -10 -9 -5 3 -10 10 -10 16 0 5 5 9
10 9 6 0 10 -7 10 -16z m-110 -37 c0 -8 -9 -22 -20 -32 -11 -10 -20 -22 -20
-26 0 -10 -89 -131 -104 -141 -19 -13 -21 4 -2 17 12 9 18 26 18 50 0 36 21
70 76 123 26 25 52 29 52 9z m-295 -57 c3 -5 1 -10 -4 -10 -6 0 -11 5 -11 10
0 6 2 10 4 10 3 0 8 -4 11 -10z m1779 -53 c16 -59 7 -85 -40 -124 -26 -21 -56
-48 -67 -60 -15 -17 -27 -21 -48 -16 -17 3 -35 0 -44 -7 -12 -10 -19 -10 -28
-1 -9 9 -8 17 3 35 8 12 24 37 35 54 11 18 27 32 37 32 16 0 68 54 68 71 0 5
9 9 21 9 12 0 23 8 26 19 6 25 29 17 37 -12z m-2397 -99 c-3 -7 -5 -2 -5 12 0
14 2 19 5 13 2 -7 2 -19 0 -25z m1604 -1 c-8 -8 -11 -7 -11 4 0 20 13 34 18
19 3 -7 -1 -17 -7 -23z m-1676 13 c-3 -5 -11 -10 -16 -10 -6 0 -7 5 -4 10 3 6
11 10 16 10 6 0 7 -4 4 -10z m-37 -15 c-2 -3 -41 -14 -86 -25 -45 -11 -88 -23
-97 -26 -8 -3 -15 -2 -15 4 0 5 37 19 83 30 83 20 124 26 115 17z m-2088 -99
c0 -3 -4 -8 -10 -11 -5 -3 -10 -1 -10 4 0 6 5 11 10 11 6 0 10 -2 10 -4z
m4340 -25 c0 -19 -35 -39 -47 -27 -7 7 26 46 39 46 4 0 8 -9 8 -19z m-4030
-150 c0 -6 -4 -13 -10 -16 -5 -3 -10 1 -10 9 0 9 5 16 10 16 6 0 10 -4 10 -9z
m140 -48 c-12 -16 -30 -43 -42 -60 -11 -18 -21 -33 -23 -33 -11 0 13 45 42 79
39 46 56 56 23 14z m798 -194 c-29 -15 -61 -28 -70 -29 -9 0 -50 -17 -91 -38
-89 -46 -107 -54 -107 -44 0 4 16 16 35 26 38 21 43 31 20 43 -29 17 88 65
174 72 42 4 80 5 84 3 5 -2 -16 -17 -45 -33z m-567 -60 c-13 -11 -27 -17 -30
-13 -7 7 28 34 43 34 6 -1 0 -10 -13 -21z m284 -69 c-7 -11 -65 -43 -65 -36 0
4 62 45 68 46 2 0 0 -5 -3 -10z m-1225 -30 c0 -5 -2 -10 -4 -10 -3 0 -8 5 -11
10 -3 6 -1 10 4 10 6 0 11 -4 11 -10z m2157 -13 c7 0 10 -4 7 -9 -3 -4 0 -8 5
-8 6 0 11 -4 11 -10 0 -16 -32 -12 -52 7 -23 21 -23 37 0 28 9 -4 22 -8 29 -8z
m-317 -7 c0 -5 -4 -10 -10 -10 -5 0 -10 5 -10 10 0 6 5 10 10 10 6 0 10 -4 10
-10z m406 -15 c24 -18 7 -19 -26 0 -16 9 -19 14 -9 15 8 0 24 -7 35 -15z
m2349 -65 c17 -19 18 -22 2 -55 -20 -42 -52 -47 -68 -11 -10 20 -8 30 10 55
26 36 32 38 56 11z m-2859 -61 c10 -16 -15 -29 -56 -29 -42 0 -74 16 -50 24 8
3 31 7 50 9 19 2 38 5 42 5 4 1 10 -3 14 -9z m70 -127 c-8 -20 -25 -55 -40
-76 -14 -21 -26 -42 -27 -45 0 -3 -2 -17 -4 -31 -21 -160 -13 -351 20 -445 8
-22 21 -71 30 -109 14 -63 14 -74 0 -130 -22 -82 -45 -214 -45 -253 0 -18 -27
-117 -59 -220 -33 -103 -71 -224 -84 -269 -30 -99 -67 -184 -78 -184 -12 0
-11 13 0 26 5 5 19 52 31 104 12 52 34 140 50 195 33 118 57 230 65 300 l5 50
-14 -43 c-8 -24 -17 -65 -21 -91 -6 -48 -24 -92 -25 -61 0 8 -5 88 -10 178
-11 163 -4 242 21 242 6 0 8 7 5 15 -8 21 20 31 39 15 23 -19 19 -43 -5 -37
-15 4 -20 0 -20 -14 0 -13 6 -19 18 -17 15 3 17 -7 16 -92 -2 -111 11 -78 22
57 4 45 10 80 15 78 4 -3 5 -32 2 -65 -3 -33 -3 -60 -1 -60 9 0 39 99 49 158
7 45 5 60 -8 83 -9 15 -20 26 -23 24 -13 -8 -69 119 -91 205 -17 67 -20 103
-16 169 3 49 10 87 16 89 6 2 8 8 5 13 -9 16 5 59 20 59 7 0 19 15 26 33 21
52 112 187 126 187 2 0 -3 -17 -10 -38z m-466 -17 c-7 -8 -17 -15 -22 -15 -6
0 -5 7 2 15 7 8 17 15 22 15 6 0 5 -7 -2 -15z m-1270 -10 c0 -8 -6 -15 -14
-15 -17 0 -28 14 -19 24 12 12 33 6 33 -9z m-333 -25 c9 -16 21 -30 25 -30 4
0 12 -19 18 -42 6 -24 18 -48 27 -55 11 -9 14 -21 9 -45 -3 -18 -9 -50 -12
-70 -8 -44 -31 -50 -71 -18 -14 11 -29 20 -34 20 -4 0 -22 -20 -38 -44 -28
-41 -58 -63 -69 -52 -11 12 10 58 31 66 12 5 17 9 11 9 -7 1 -9 16 -5 44 4 23
4 56 0 72 -4 17 -7 51 -8 77 -1 44 2 49 36 73 48 32 58 32 80 -5z m6087 -12
c22 -30 3 -48 -24 -23 -11 10 -20 24 -20 32 0 21 27 15 44 -9z m-1199 -28 c3
-5 1 -10 -4 -10 -6 0 -11 5 -11 10 0 6 2 10 4 10 3 0 8 -4 11 -10z m661 -28
c-4 -3 -14 2 -24 12 -16 18 -16 18 6 6 13 -6 21 -14 18 -18z m-5181 -12 c4 -6
1 -18 -6 -26 -11 -13 -14 -13 -27 0 -8 8 -11 19 -8 25 9 14 33 14 41 1z m2609
-30 c7 0 23 -9 36 -20 18 -15 21 -23 12 -32 -8 -8 -1 -16 28 -31 41 -20 82
-65 118 -129 56 -100 114 -333 81 -326 -8 2 -15 -7 -17 -18 -3 -24 -68 -104
-83 -104 -6 0 -29 -10 -52 -22 -87 -44 -277 -23 -277 32 0 11 -4 20 -9 20 -6
0 -30 13 -54 29 -32 22 -52 29 -75 26 -29 -4 -32 -2 -32 23 0 16 -5 33 -11 39
-8 8 -6 16 9 31 11 11 23 35 27 53 6 27 4 36 -15 51 -37 30 -49 24 -39 -19 11
-51 11 -83 -1 -83 -10 0 -26 47 -22 68 6 27 -15 9 -35 -30 l-21 -43 -12 33
c-9 25 -17 31 -30 27 -12 -4 -24 2 -33 15 -19 27 -29 14 -50 -66 -25 -88 -22
-117 27 -262 24 -73 40 -130 35 -126 -12 7 -11 -3 3 -26 7 -10 9 -22 5 -26
-10 -10 -73 51 -105 101 -13 22 -31 44 -38 48 -8 4 -26 29 -41 54 -23 40 -28
61 -31 140 -4 88 -3 97 26 156 80 164 341 342 576 393 56 12 74 19 65 26 -11
7 -9 8 4 4 10 -3 24 -6 31 -6z m-1621 -43 c-154 -138 -208 -175 -239 -163 -20
8 -10 22 20 30 27 7 116 65 161 104 40 36 89 71 93 67 2 -2 -13 -19 -35 -38z
m347 -77 c0 -5 -7 -10 -15 -10 -8 0 -15 5 -15 10 0 6 7 10 15 10 8 0 15 -4 15
-10z m3900 -66 c0 -8 -4 -12 -10 -9 -5 3 -10 10 -10 16 0 5 5 9 10 9 6 0 10
-7 10 -16z m-4530 -22 c0 -18 -43 -47 -88 -59 -62 -16 -215 -17 -188 -1 11 6
57 15 103 19 49 4 98 15 120 27 44 23 53 25 53 14z m3780 -148 c58 -23 53 -44
-12 -44 -77 0 -55 -8 54 -19 96 -10 166 -30 106 -31 -28 0 -37 -13 -17 -25 5
-4 92 -8 192 -10 231 -4 217 -3 217 -16 0 -9 -78 -10 -297 -6 -164 3 -308 9
-320 12 -31 10 -36 31 -16 68 9 18 16 38 14 46 -4 21 7 41 23 41 9 0 34 -7 56
-16z m1053 -21 c-7 -2 -19 -2 -25 0 -7 3 -2 5 12 5 14 0 19 -2 13 -5z m102
-13 c3 -5 -1 -10 -9 -10 -9 0 -16 5 -16 10 0 6 4 10 9 10 6 0 13 -4 16 -10z
m-114 -53 c4 -15 4 -27 0 -27 -15 0 -43 39 -36 50 11 17 28 6 36 -23z m-1010
-143 c23 -21 25 -44 4 -44 -8 0 -15 -4 -15 -10 0 -5 8 -10 19 -10 10 0 53 -27
96 -60 43 -33 82 -60 86 -60 5 0 17 -13 27 -29 16 -26 17 -40 8 -121 -9 -89
-3 -146 25 -236 5 -17 9 -38 9 -47 0 -9 5 -17 10 -17 6 0 10 -9 10 -21 0 -37
-15 -12 -55 93 -37 96 -45 108 -116 178 -41 41 -81 84 -87 95 -10 18 -11 18
-12 2 0 -10 -4 -16 -9 -12 -5 3 -17 -2 -26 -11 -9 -9 -17 -15 -19 -13 -1 2
-15 22 -32 44 -50 69 -52 74 -42 155 5 41 7 87 4 102 -4 19 0 31 12 38 23 14
80 5 103 -16z m-2532 -262 c7 -25 7 -81 1 -167 l-9 -130 43 -105 c54 -130 67
-179 23 -87 -18 38 -36 65 -40 60 -5 -4 -5 1 -1 10 4 10 0 25 -9 35 -13 15
-22 42 -34 107 -6 32 -7 63 -5 193 2 125 13 153 31 84z m2438 -77 c-6 -17 -24
27 -31 75 l-7 45 21 -55 c11 -30 19 -59 17 -65z m818 54 c20 -22 20 -22 0 -11
-11 5 -29 20 -40 33 -20 22 -20 22 0 11 11 -5 29 -20 40 -33z m-3468 -34 c2
-33 4 -72 6 -87 4 -34 -8 -36 -34 -5 -14 17 -18 38 -19 90 0 65 1 68 23 65 20
-3 22 -9 24 -63z m303 -11 c30 -30 75 -67 99 -82 24 -14 39 -28 33 -30 -7 -2
-29 9 -50 25 -20 16 -50 37 -67 48 -16 10 -35 26 -42 34 -16 21 -16 14 2 -47
9 -29 20 -52 25 -52 6 0 10 -7 10 -15 0 -20 52 -54 58 -37 7 21 32 13 42 -13
11 -30 30 -33 37 -5 6 23 16 25 46 9 19 -11 34 -14 78 -18 27 -2 95 -114 113
-184 10 -40 -4 -123 -24 -144 -13 -14 -16 -33 -14 -93 2 -65 2 -69 -6 -30 -4
25 -17 68 -27 97 -17 45 -21 49 -31 33 -6 -10 -24 -20 -39 -22 -26 -3 -29 -8
-40 -63 -7 -33 -18 -79 -25 -103 -13 -42 -13 -40 -14 62 -1 58 -6 112 -12 119
-6 7 -12 30 -15 52 -3 34 -5 37 -12 17 -9 -26 -27 -24 -35 4 -10 38 -41 84
-55 84 -17 0 -20 -25 -5 -35 21 -13 48 -62 41 -74 -14 -23 -62 37 -108 137
-44 93 -44 95 -35 156 6 35 9 99 8 144 0 45 1 82 4 82 3 0 30 -25 60 -56z
m1610 1 c10 -13 9 -15 -8 -15 -22 0 -36 13 -25 24 10 10 20 7 33 -9z m824 -10
c-4 -8 -13 -15 -21 -15 -13 0 -13 3 -3 15 7 8 16 15 21 15 5 0 6 -7 3 -15z
m-888 -30 c22 -17 38 -20 29 -5 -3 6 1 7 10 3 13 -4 14 -8 4 -14 -9 -5 -5 -10
14 -14 15 -4 27 -11 27 -16 0 -4 16 -16 36 -25 21 -10 48 -28 61 -40 13 -12
39 -29 58 -38 32 -16 75 -63 75 -84 0 -5 11 -26 25 -47 29 -41 27 -52 -3 -36
-28 15 -45 14 -39 -1 3 -7 22 -51 41 -97 20 -46 45 -94 57 -107 28 -30 16 -48
-27 -39 -27 5 -34 3 -34 -10 0 -31 49 -111 102 -167 55 -59 61 -71 20 -42 -27
19 -52 8 -25 -11 10 -7 14 -17 10 -21 -4 -4 -18 2 -30 13 -12 12 -33 32 -47
45 -14 13 -42 43 -63 66 -21 23 -43 42 -49 42 -12 0 -2 -84 13 -113 12 -20 4
-37 -17 -37 -8 0 -14 -8 -14 -17 0 -40 14 -65 44 -79 36 -17 74 -39 82 -47 12
-12 -37 -48 -57 -42 -10 4 -19 10 -19 14 0 4 -12 13 -26 19 -14 7 -23 8 -19 2
3 -5 1 -10 -4 -10 -6 0 -11 -7 -11 -15 0 -8 9 -15 19 -15 11 0 26 -7 35 -15 8
-8 21 -15 30 -15 29 0 24 -16 -15 -48 -21 -18 -39 -29 -39 -24 0 5 7 15 15 22
24 20 18 35 -24 58 l-40 23 -12 -22 c-17 -32 7 -99 35 -99 32 0 7 -16 -52 -33
-28 -8 -54 -11 -57 -7 -3 5 8 11 24 15 40 9 45 30 25 109 -12 49 -26 76 -55
107 -21 23 -39 49 -39 56 0 23 -28 70 -46 77 -18 7 -64 -18 -64 -34 0 -18 -53
-70 -71 -70 -26 0 -29 21 -13 111 18 105 28 115 21 22 -7 -83 6 -96 45 -43 16
23 30 30 55 30 34 0 44 13 18 24 -8 3 -15 12 -15 21 0 9 -7 27 -16 40 -12 19
-14 37 -9 75 8 56 -9 71 -20 18 -7 -30 -20 -47 -36 -48 -8 0 5 85 25 154 8 33
19 82 22 110 4 28 16 64 28 79 17 23 21 44 22 109 0 72 3 83 24 100 12 10 21
20 19 22 -2 2 -29 20 -59 40 -30 20 -48 36 -39 36 8 0 24 -7 35 -15z m-4309
-50 c19 -19 33 -40 31 -47 -7 -21 -54 -20 -97 2 -31 15 -41 26 -41 44 0 48 60
48 107 1z m6111 -4 c3 -8 -1 -12 -9 -9 -7 2 -15 10 -17 17 -3 8 1 12 9 9 7 -2
15 -10 17 -17z m131 -107 c14 -12 -19 -1 -35 12 -18 14 -18 14 6 3 14 -6 27
-13 29 -15z m-2957 -7 c57 -4 26 -22 -37 -22 -36 0 -65 -3 -65 -7 0 -5 4 -8 9
-8 17 0 102 -271 118 -377 3 -18 9 -33 15 -33 5 0 33 18 63 41 30 22 59 39 65
37 7 -2 -9 -18 -34 -36 -24 -18 -59 -48 -77 -67 -45 -47 -59 -45 -60 8 -2 111
-9 158 -34 232 -32 93 -73 170 -109 204 -41 38 -33 44 47 37 39 -4 84 -8 99
-9z m108 3 c0 -11 -48 -25 -57 -16 -3 3 5 10 18 15 32 13 39 13 39 1z m23 -95
c-1 -27 -7 -69 -14 -92 -11 -40 -14 -43 -45 -43 -18 0 -37 6 -41 14 -4 8 -17
15 -28 18 -14 2 -20 12 -21 33 -1 17 -8 45 -17 62 -23 43 -23 43 21 44 20 1
51 5 67 9 17 5 41 7 55 7 23 -2 25 -5 23 -52z m2985 -14 c3 -8 -1 -12 -9 -9
-7 2 -15 10 -17 17 -3 8 1 12 9 9 7 -2 15 -10 17 -17z m-3008 -269 c0 -8 -14
-16 -62 -40 -5 -2 -8 4 -8 13 0 9 4 13 10 10 5 -3 20 1 32 9 26 18 28 19 28 8z
m-20 -200 c0 -10 -5 -23 -12 -30 -37 -37 -73 18 -43 65 l17 25 19 -21 c10 -11
19 -28 19 -39z m-473 -44 c-3 -8 -6 -5 -6 6 -1 11 2 17 5 13 3 -3 4 -12 1 -19z
m488 -28 c-32 -21 -55 -26 -55 -11 0 10 45 29 70 30 8 1 2 -8 -15 -19z m-255
-56 c0 -8 -4 -12 -10 -9 -5 3 -10 13 -10 21 0 8 5 12 10 9 6 -3 10 -13 10 -21z
m-1766 -46 c8 -32 7 -86 -1 -91 -5 -3 -24 -7 -43 -9 -27 -2 -35 1 -38 15 -2
12 3 17 18 17 24 0 39 28 20 40 -7 4 -10 15 -7 25 4 9 11 13 17 10 5 -3 10 -1
10 4 0 20 18 11 24 -11z m1802 -3 c-16 -24 -44 -31 -59 -16 -14 14 14 36 48
36 22 0 23 -2 11 -20z m727 -178 c3 -8 -1 -14 -8 -14 -7 0 -11 6 -8 14 3 7 6
13 8 13 2 0 5 -6 8 -13z m-2659 -54 c-3 -12 -12 -24 -19 -27 -10 -3 -9 3 3 24
19 33 24 34 16 3z m-34 -52 c0 -16 -61 -86 -87 -100 -25 -13 -26 -12 -19 15 9
36 44 74 67 74 10 0 21 5 24 10 8 12 15 13 15 1z m-1090 -75 c0 -3 -4 -8 -10
-11 -5 -3 -10 -1 -10 4 0 6 5 11 10 11 6 0 10 -2 10 -4z m4690 -205 c0 -5 -7
-11 -14 -14 -10 -4 -13 -1 -9 9 6 15 23 19 23 5z m-2710 -42 c0 -14 -37 -29
-71 -29 -31 0 -32 1 -15 19 25 28 86 35 86 10z m-1124 -85 c-7 -17 -36 -19
-36 -1 0 7 8 24 18 37 l17 25 3 -23 c2 -13 1 -30 -2 -38z m2677 -4 c9 -11 17
-29 17 -40 0 -18 -7 -20 -55 -20 -52 0 -73 14 -40 26 8 4 15 17 15 30 0 31 38
33 63 4z m120 -28 c8 -13 52 -35 72 -37 22 -2 35 -18 35 -45 0 -16 -5 -32 -10
-35 -6 -4 -8 -11 -5 -16 13 -19 -67 24 -116 63 -9 7 -19 37 -23 68 l-7 54 23
-19 c13 -11 27 -26 31 -33z m-1625 20 c7 -5 10 -16 6 -25 -7 -18 -34 -29 -79
-32 -16 -1 -45 -5 -64 -10 -56 -12 -32 16 40 46 73 30 79 32 97 21z m1372 -12
c0 -23 -20 -40 -47 -40 -13 0 -31 -5 -41 -11 -14 -9 -25 -8 -45 3 l-27 14 40
26 c47 30 120 35 120 8z m-1305 -70 c-3 -5 -11 -10 -16 -10 -6 0 -7 5 -4 10 3
6 11 10 16 10 6 0 7 -4 4 -10z m-35 -10 c0 -5 -19 -14 -42 -21 -24 -6 -59 -19
-78 -29 -19 -9 -91 -25 -160 -35 -77 -10 -132 -23 -142 -32 -14 -13 -21 -13
-33 -3 -8 7 -22 9 -32 5 -10 -4 -29 -7 -43 -6 -14 1 -72 -10 -130 -24 -115
-27 -152 -31 -105 -11 54 23 162 47 283 61 64 8 140 19 167 24 28 6 84 18 125
27 41 8 95 24 120 34 53 21 70 24 70 10z m1088 -12 c-5 -15 -48 -24 -48 -10 0
14 12 22 33 22 10 0 17 -5 15 -12z m3103 -85 c-16 -32 -42 -84 -58 -116 -15
-32 -40 -71 -54 -87 -15 -16 -24 -32 -20 -36 3 -4 0 -4 -7 0 -10 6 -10 12 -1
24 6 10 -3 2 -20 -17 -17 -19 -38 -50 -47 -70 -9 -19 -41 -68 -72 -109 -49
-67 -57 -74 -84 -70 -25 4 -29 2 -24 -14 3 -14 -17 -41 -72 -97 -42 -43 -95
-91 -117 -107 -79 -57 -221 -170 -251 -199 -24 -24 -28 -34 -20 -47 15 -24
-10 -48 -50 -48 -32 0 -34 -2 -34 -34 0 -22 -6 -36 -16 -40 -23 -9 -33 3 -13
14 19 11 14 59 -9 76 -27 20 -8 45 53 70 68 28 135 71 135 88 0 6 52 56 116
111 63 55 126 115 140 133 14 17 31 32 38 32 21 0 75 64 82 98 6 32 15 37 70
46 10 2 18 9 16 15 -2 10 38 55 57 63 15 7 188 228 234 301 27 42 51 77 53 77
2 0 -9 -26 -25 -57z m-4136 17 c3 -5 -7 -15 -22 -21 -15 -6 -43 -17 -61 -25
-18 -8 -79 -19 -135 -24 -56 -6 -140 -15 -187 -21 -47 -6 -105 -12 -130 -13
-111 -6 -381 -80 -483 -133 -16 -8 -31 -12 -34 -10 -7 8 165 87 237 109 56 16
168 35 315 53 118 14 147 19 225 36 47 10 97 19 113 19 15 0 27 4 27 9 0 23
122 42 135 21z m-445 -40 c0 -5 -2 -10 -4 -10 -3 0 -8 5 -11 10 -3 6 -1 10 4
10 6 0 11 -4 11 -10z m1750 -56 c0 -14 -3 -14 -15 -4 -8 7 -15 14 -15 16 0 2
7 4 15 4 8 0 15 -7 15 -16z m-1330 -17 c0 -2 -10 -12 -21 -23 -22 -19 -22 -19
-8 4 12 19 29 30 29 19z m1534 -32 c9 -14 14 -25 11 -25 -12 0 -55 33 -55 41
0 18 28 8 44 -16z m-665 -18 c20 -17 162 -77 181 -77 14 0 60 -49 60 -65 0
-19 -133 35 -185 75 -10 8 -94 40 -107 40 -3 0 -4 -9 -1 -20 7 -27 91 -101
156 -138 28 -16 61 -40 72 -52 l20 -23 -25 8 c-14 4 -39 18 -56 31 -17 13 -38
24 -47 24 -10 0 -17 4 -17 9 0 5 -10 11 -23 15 -26 6 -177 146 -177 163 0 6 6
13 13 16 24 9 122 4 136 -6z m-1029 -11 c0 -19 -158 -158 -173 -153 -24 8 -12
25 65 95 79 71 108 86 108 58z m108 -6 c-7 -11 -17 -20 -22 -20 -5 0 -1 9 9
20 10 11 20 20 22 20 2 0 -2 -9 -9 -20z m775 -66 c34 -36 87 -101 117 -144 30
-43 74 -106 97 -138 23 -33 57 -69 75 -80 18 -12 45 -33 58 -47 14 -15 45 -41
70 -58 25 -17 70 -54 100 -82 58 -55 200 -164 284 -220 28 -19 98 -71 156
-116 133 -103 158 -119 193 -119 16 0 40 -9 54 -20 30 -24 47 -26 39 -5 -8 22
17 18 32 -5 7 -11 22 -20 34 -20 20 0 21 3 15 87 -4 49 -10 112 -13 141 -5 34
-3 52 4 52 11 0 95 -103 127 -155 13 -22 7 -19 -24 15 l-42 45 40 -82 c44 -88
45 -93 33 -93 -5 0 -28 34 -53 75 -43 74 -44 75 -47 43 -2 -18 2 -59 8 -92 8
-42 8 -62 1 -69 -6 -6 -11 -19 -11 -29 0 -10 -2 -18 -5 -18 -38 0 -284 145
-390 230 -70 57 -188 138 -279 192 -54 32 -131 94 -185 149 -35 35 -145 111
-207 142 -18 9 -41 31 -52 49 -12 18 -28 42 -35 53 -8 11 -40 59 -70 106 -31
47 -90 126 -132 175 -41 49 -75 92 -75 97 0 19 25 1 83 -59z m-715 12 c-27
-42 -57 -60 -31 -18 23 37 45 63 50 58 3 -2 -6 -20 -19 -40z m412 -15 c0 -10
7 -36 16 -57 9 -22 39 -149 66 -284 27 -135 52 -256 56 -270 4 -21 49 -103 92
-170 20 -31 62 -115 53 -105 -15 15 -95 122 -125 167 -17 26 -35 76 -48 137
-12 53 -30 130 -41 171 -11 41 -34 143 -50 225 -44 225 -44 219 -31 211 7 -4
12 -15 12 -25z m1770 -4 c0 -18 -2 -19 -10 -7 -13 20 -13 43 0 35 6 -3 10 -16
10 -28z m-1583 -13 c46 -38 210 -253 297 -389 52 -82 91 -127 119 -138 9 -3
60 -39 113 -79 53 -40 107 -80 121 -88 14 -8 25 -20 25 -25 -2 -19 -35 -17
-51 3 -20 24 -180 152 -201 160 -35 13 -64 47 -156 183 -114 169 -179 252
-263 334 -56 55 -71 75 -55 75 4 0 27 -16 51 -36z m-717 12 c0 -2 -8 -10 -17
-17 -16 -13 -17 -12 -4 4 13 16 21 21 21 13z m190 -20 c0 -15 -40 -69 -47 -63
-6 7 29 77 39 77 4 0 8 -6 8 -14z m245 -59 c4 -23 24 -109 45 -192 21 -82 46
-202 55 -265 15 -100 23 -125 62 -197 25 -48 42 -91 39 -101 -3 -10 7 -36 24
-61 31 -46 44 -95 15 -57 -8 11 -15 23 -15 27 0 5 -11 24 -24 44 -13 19 -22
43 -19 54 5 19 -42 101 -58 101 -17 0 -35 66 -47 170 -7 58 -21 134 -32 170
-31 100 -80 314 -80 345 0 43 27 14 35 -38z m183 38 c-3 -3 -9 2 -12 12 -6 14
-5 15 5 6 7 -7 10 -15 7 -18z m1377 -41 c3 -68 -14 -94 -61 -94 -18 0 -34 -5
-36 -10 -2 -7 -16 -6 -39 4 -24 10 -54 13 -97 9 -43 -4 -62 -2 -62 6 0 6 18
11 44 11 56 0 96 15 96 35 0 19 14 19 29 1 26 -31 86 11 103 71 13 47 21 35
23 -33z m-2335 31 c0 -9 -9 -15 -21 -15 -18 0 -19 2 -9 15 7 8 16 15 21 15 5
0 9 -7 9 -15z m1845 -28 c44 -18 72 -33 63 -35 -9 -2 -45 8 -81 22 -35 14 -68
26 -73 26 -6 0 -19 7 -30 16 -18 15 -18 15 11 9 17 -4 66 -21 110 -38z m-275
-2 c7 -8 8 -15 2 -15 -5 0 -15 7 -22 15 -7 8 -8 15 -2 15 5 0 15 -7 22 -15z
m-1016 -54 c-6 -26 -10 -36 -78 -186 -56 -123 -70 -148 -83 -153 -23 -7 -14
44 23 124 20 44 44 98 55 121 10 23 19 47 19 52 0 6 4 11 10 11 5 0 12 12 16
28 15 68 15 68 30 47 8 -10 11 -29 8 -44z m-180 37 c-4 -7 -28 -44 -54 -83
-54 -80 -130 -212 -156 -270 -22 -50 -50 -79 -70 -71 -10 4 -14 0 -12 -11 2
-14 -11 -20 -72 -29 -90 -15 -177 -39 -196 -55 -8 -7 -14 -7 -14 -1 0 18 124
72 197 86 38 7 77 17 84 22 8 5 19 9 26 9 12 0 22 18 116 198 46 88 134 216
150 217 5 0 5 -6 1 -12z m-316 -10 c-6 -17 -46 -45 -91 -63 -36 -15 -38 -15
-29 0 9 17 99 74 115 75 5 0 7 -5 5 -12z m567 -105 c-4 -20 -2 -33 5 -33 5 0
10 21 10 46 0 30 4 43 11 38 13 -8 9 -41 -25 -169 -14 -55 -30 -136 -36 -180
-16 -114 -56 -312 -75 -365 -8 -25 -31 -76 -49 -115 -19 -38 -38 -79 -42 -90
-14 -35 -17 34 -4 80 35 126 54 181 62 186 5 3 15 33 23 65 7 32 16 70 21 83
5 17 4 22 -4 17 -16 -10 -15 14 3 57 22 52 19 64 -10 37 l-25 -23 0 24 c0 33
78 355 97 398 l14 34 15 -29 c10 -18 13 -41 9 -61z m1395 77 c0 -5 -4 -10 -10
-10 -5 0 -10 5 -10 10 0 6 5 10 10 10 6 0 10 -4 10 -10z m-1802 -32 c-8 -13
-25 -40 -37 -61 -13 -21 -25 -36 -28 -33 -5 5 66 116 74 116 3 0 -1 -10 -9
-22z m492 -95 c0 -43 3 -96 7 -117 4 -26 3 -37 -4 -33 -6 4 -16 -6 -22 -23 -5
-17 -13 -30 -17 -30 -8 0 3 241 12 264 14 37 24 11 24 -61z m338 2 c9 -16 19
-32 22 -35 23 -23 59 -80 50 -80 -34 0 -120 100 -120 139 0 22 31 7 48 -24z
m262 -7 c15 -21 17 -28 6 -19 -16 13 -41 51 -33 51 2 0 14 -15 27 -32z m-1635
-58 c-21 -23 -35 -26 -35 -6 0 15 14 24 39 25 11 1 10 -4 -4 -19z m2684 -69
c36 -53 52 -91 35 -91 -20 0 -43 25 -48 54 -4 19 -13 39 -21 46 -13 11 -22 50
-11 50 2 0 22 -27 45 -59z m-1459 -37 c0 -8 -4 -12 -10 -9 -5 3 -10 10 -10 16
0 5 5 9 10 9 6 0 10 -7 10 -16z m1144 -69 c19 -15 19 -15 -5 -15 -13 0 -33 7
-43 15 -19 15 -19 15 5 15 13 0 33 -7 43 -15z m316 11 c0 -3 -4 -8 -10 -11 -5
-3 -10 -1 -10 4 0 6 5 11 10 11 6 0 10 -2 10 -4z m-165 -48 c13 -5 0 -7 -39
-4 -32 3 -64 10 -70 16 -12 12 76 3 109 -12z m-1498 -10 c-3 -8 -6 -5 -6 6 -1
11 2 17 5 13 3 -3 4 -12 1 -19z m372 -64 c33 -70 36 -101 4 -42 -35 66 -51
108 -39 108 2 0 18 -30 35 -66z m-359 -3 c0 -6 -5 -13 -10 -16 -6 -4 -8 -11
-5 -16 3 -5 -1 -6 -9 -3 -19 7 -20 16 -4 32 14 14 28 16 28 3z m-239 -64 c-10
-9 -11 -8 -5 6 3 10 9 15 12 12 3 -3 0 -11 -7 -18z m1449 -195 c0 -2 -15 9
-34 24 -18 16 -47 37 -65 46 -22 12 -31 24 -31 43 0 24 6 20 65 -42 36 -37 65
-69 65 -71z m787 -7 c1 -81 -1 -125 -8 -125 -6 0 -7 -4 -4 -10 12 -20 -2 -9
-31 22 -29 33 -29 33 -1 8 l28 -24 -5 74 c-6 77 2 195 12 185 3 -3 7 -62 9
-130z m854 103 c0 -10 2 -10 6 0 11 27 21 10 16 -25 -10 -65 -37 -100 -83
-106 -46 -6 -126 -65 -140 -103 -10 -26 -17 -29 -38 -15 -22 13 -4 54 36 83
20 14 69 60 107 101 68 72 94 90 96 65z m-1556 -148 c10 -11 16 -20 13 -20 -3
0 -13 9 -23 20 -10 11 -16 20 -13 20 3 0 13 -9 23 -20z m-815 -23 c0 -5 -4 -5
-10 -2 -5 3 -10 14 -10 23 0 15 2 15 10 2 5 -8 10 -19 10 -23z m-1521 -16
c-13 -11 -28 -20 -34 -20 -5 0 3 11 20 24 16 13 31 22 34 20 2 -3 -7 -13 -20
-24z m3634 -7 c3 -3 1 -18 -4 -32 -9 -22 -5 -30 26 -62 19 -20 35 -41 35 -48
0 -14 -58 -16 -78 -3 -18 11 -60 -9 -68 -31 -3 -10 -15 -23 -28 -30 -33 -19
-109 -75 -184 -136 -61 -49 -75 -56 -127 -64 -13 -2 -20 -11 -20 -25 0 -27
-31 -61 -74 -79 -35 -15 -126 -90 -216 -179 -139 -138 -227 -196 -268 -178
-21 9 -16 15 73 102 52 50 101 91 110 91 8 0 20 8 26 18 6 10 38 38 70 62 33
25 94 75 137 112 42 38 82 68 88 68 19 0 136 107 136 124 0 17 62 103 81 110
8 4 11 -2 8 -19 -4 -21 -2 -24 12 -16 24 13 136 128 173 179 23 32 37 42 58
42 15 0 30 -3 34 -6z m-1690 -71 c-14 -5 -93 36 -93 48 0 4 24 -4 53 -18 28
-14 46 -28 40 -30z m1177 33 c0 -7 3 -29 6 -47 4 -23 2 -29 -4 -19 -14 23 -23
80 -12 80 6 0 10 -6 10 -14z m-1665 -76 c3 -5 -1 -10 -9 -10 -9 0 -16 5 -16
10 0 6 4 10 9 10 6 0 13 -4 16 -10z m1435 -40 c0 -5 -7 -10 -15 -10 -8 0 -15
5 -15 10 0 6 7 10 15 10 8 0 15 -4 15 -10z"/>
<path d="M2730 7748 c0 -7 18 -36 39 -65 41 -54 44 -78 4 -41 -33 31 -29 8 11
-76 34 -69 77 -126 96 -126 6 0 10 -6 10 -14 0 -17 87 -96 106 -96 10 0 7 14
-8 53 -12 28 -27 59 -34 67 -23 28 -84 122 -84 130 0 4 23 -16 52 -44 29 -28
51 -57 50 -63 -4 -17 13 -48 57 -106 36 -48 140 -115 204 -131 33 -8 36 -35 5
-38 -13 -1 -30 -2 -38 -4 -8 -1 -22 -3 -30 -4 -11 -1 -9 -4 5 -10 32 -14 72
-11 90 6 9 9 37 24 62 34 52 20 54 19 -52 36 -22 4 -51 16 -64 28 -27 24 -171
214 -171 225 0 18 -152 162 -216 204 -74 49 -94 56 -94 35z m185 -289 c11 -17
-1 -21 -15 -4 -8 9 -8 15 -2 15 6 0 14 -5 17 -11z"/>
<path d="M3324 7116 c-21 -19 -36 -37 -33 -40 3 -3 23 12 44 34 48 49 42 52
-11 6z"/>
<path d="M2350 6775 c7 -8 16 -12 21 -9 13 8 1 24 -18 24 -13 0 -13 -3 -3 -15z"/>
<path d="M2577 6746 c-66 -18 -76 -30 -38 -49 16 -8 31 -12 33 -8 2 3 20 15
40 26 67 35 47 53 -35 31z"/>
<path d="M3010 6663 c-14 -14 -43 -34 -65 -45 -45 -23 -142 -96 -166 -125 -9
-11 -25 -26 -36 -34 -10 -8 -34 -35 -51 -61 -30 -44 -31 -47 -12 -53 11 -3 24
-4 30 0 5 3 7 0 4 -9 -10 -27 29 -37 63 -16 30 18 45 30 119 93 69 59 154 199
154 253 0 30 -8 29 -40 -3z"/>
<path d="M2158 6613 c-32 -2 -58 -7 -58 -12 0 -17 57 -60 84 -63 24 -2 34 3
53 31 29 42 29 51 1 49 -13 -1 -49 -3 -80 -5z"/>
<path d="M2633 6537 c-54 -57 -78 -95 -68 -105 6 -7 144 136 145 151 1 21 -33
1 -77 -46z"/>
<path d="M2770 6572 c0 -4 -28 -36 -63 -72 -79 -82 -122 -140 -105 -140 14 0
88 74 88 88 0 5 21 22 46 38 25 16 56 43 70 61 l25 33 -30 0 c-17 0 -31 -3
-31 -8z"/>
<path d="M2600 6435 c-7 -8 -8 -15 -2 -15 5 0 15 7 22 15 7 8 8 15 2 15 -5 0
-15 -7 -22 -15z"/>
<path d="M2695 6223 c-72 -16 -95 -25 -95 -36 0 -7 -14 -32 -30 -56 -17 -24
-30 -48 -30 -52 0 -9 59 9 78 24 13 10 107 128 100 126 -2 -1 -12 -3 -23 -6z"/>
<path d="M2454 6114 c-17 -14 -17 -15 -1 -10 11 3 16 2 12 -4 -3 -6 -12 -10
-19 -10 -8 0 -19 -7 -26 -15 -15 -18 -12 -18 27 -5 32 12 64 60 40 60 -7 0
-22 -7 -33 -16z"/>
<path d="M1781 6090 c-18 -4 -40 -15 -49 -23 -14 -14 -12 -17 12 -23 15 -3 48
-3 74 1 26 5 59 8 75 8 33 0 33 3 5 28 -24 19 -61 22 -117 9z"/>
<path d="M2510 6043 c-33 -16 -34 -17 -11 -21 25 -4 71 15 71 30 0 12 -21 9
-60 -9z"/>
<path d="M2181 5959 c-18 -11 -32 -22 -30 -24 10 -9 48 -9 50 0 0 6 5 18 10
28 12 21 11 21 -30 -4z"/>
<path d="M2270 5959 c-37 -21 -19 -19 50 7 30 11 32 13 10 13 -14 0 -41 -9
-60 -20z"/>
<path d="M2400 5949 c-104 -87 -114 -108 -32 -70 43 20 112 74 112 87 0 13
-58 0 -80 -17z"/>
<path d="M2765 5965 c-5 -2 -36 -6 -67 -10 -36 -4 -58 -11 -58 -19 0 -7 -15
-19 -32 -28 l-33 -15 55 4 c53 5 160 48 160 65 0 8 -7 9 -25 3z"/>
<path d="M2254 5915 c-27 -13 -61 -26 -75 -29 -43 -8 -100 -36 -94 -46 18 -29
165 18 228 71 27 24 29 28 12 28 -11 1 -43 -10 -71 -24z"/>
<path d="M2088 5888 c-21 -12 -38 -25 -38 -29 0 -10 99 34 100 44 0 13 -24 7
-62 -15z"/>
<path d="M2237 5840 c-21 -4 -43 -13 -50 -20 -10 -10 -2 -11 37 -5 58 8 76 14
76 26 0 10 -8 10 -63 -1z"/>
<path d="M1930 5823 c-20 -8 -44 -33 -37 -39 6 -7 63 22 72 36 7 11 -11 12
-35 3z"/>
<path d="M2010 5811 c-8 -6 -18 -7 -22 -5 -4 3 -8 -1 -8 -10 0 -8 -6 -16 -12
-19 -25 -8 1 -19 60 -24 58 -5 162 18 162 36 0 8 -112 31 -146 31 -11 0 -26
-4 -34 -9z"/>
<path d="M3780 7400 c0 -5 5 -10 11 -10 5 0 7 5 4 10 -3 6 -8 10 -11 10 -2 0
-4 -4 -4 -10z"/>
<path d="M3504 7379 c-3 -5 2 -9 10 -9 8 0 36 -11 62 -25 58 -31 77 -28 33 4
-36 26 -96 44 -105 30z"/>
<path d="M3761 7164 c0 -11 3 -14 6 -6 3 7 2 16 -1 19 -3 4 -6 -2 -5 -13z"/>
<path d="M3790 7151 c0 -6 7 -11 15 -11 8 0 20 -9 27 -20 7 -11 19 -20 26 -20
8 0 10 -5 6 -12 -5 -7 -2 -9 8 -5 9 3 21 0 27 -6 6 -6 11 -8 11 -5 0 3 -21 21
-47 40 -66 47 -73 51 -73 39z"/>
<path d="M3735 7121 c-7 -13 115 -101 140 -101 14 0 -48 49 -77 61 -15 6 -25
15 -22 20 3 5 -3 6 -12 2 -13 -5 -16 -3 -11 10 7 18 -8 24 -18 8z"/>
<path d="M3996 7080 c5 -5 25 -12 44 -15 l35 -5 -30 14 c-35 18 -64 21 -49 6z"/>
<path d="M3974 7046 c11 -9 24 -16 30 -16 12 0 7 5 -24 19 -24 11 -24 11 -6
-3z"/>
<path d="M4199 6982 c13 -24 41 -48 41 -35 0 12 -34 53 -44 53 -4 0 -2 -8 3
-18z"/>
<path d="M4162 6620 c-18 -29 -15 -38 4 -12 9 13 14 25 12 27 -2 2 -9 -5 -16
-15z"/>
<path d="M4340 6509 c0 -24 23 -21 28 4 2 10 -3 17 -12 17 -10 0 -16 -9 -16
-21z"/>
<path d="M3995 6469 c-4 -6 -5 -12 -2 -15 2 -3 7 2 10 11 7 17 1 20 -8 4z"/>
<path d="M3585 6322 c-28 -10 -42 -18 -32 -20 19 -4 23 -17 7 -27 -13 -8 -5
-22 20 -35 22 -12 55 14 46 36 -3 7 4 20 15 27 15 11 17 16 7 24 -9 8 -28 6
-63 -5z"/>
<path d="M3515 6212 c-28 -14 -32 -37 -12 -61 7 -9 22 -36 32 -61 10 -25 33
-60 51 -78 30 -29 38 -32 69 -26 58 11 44 26 -35 39 -34 5 -75 39 -65 55 3 4
21 2 41 -5 26 -9 47 -9 81 -2 84 20 137 99 76 113 -16 3 -38 10 -51 15 -13 5
-36 9 -52 9 -17 0 -30 3 -30 8 0 12 -78 8 -105 -6z m136 -42 c18 0 28 -4 24
-10 -10 -16 -72 -12 -89 6 -22 22 -20 25 10 14 14 -6 39 -10 55 -10z m63 -51
c-19 -21 -73 -25 -105 -9 -24 13 -25 33 -1 26 9 -3 37 -2 62 2 55 11 66 6 44
-19z"/>
<path d="M4011 6054 c0 -11 3 -14 6 -6 3 7 2 16 -1 19 -3 4 -6 -2 -5 -13z"/>
<path d="M4556 6041 c-10 -11 -31 -25 -47 -31 -16 -7 -29 -15 -29 -19 0 -4 -9
-7 -20 -8 -23 -2 -104 -66 -90 -71 5 -2 34 13 63 32 30 20 61 36 69 36 9 0 21
6 27 14 6 8 25 19 41 26 17 7 30 19 30 26 0 20 -24 17 -44 -5z"/>
<path d="M4428 5877 c-63 -31 -94 -57 -120 -102 -10 -18 -10 -19 5 -7 14 12
19 12 32 -2 22 -22 24 -21 72 26 23 23 46 38 50 34 5 -4 -1 -14 -11 -22 -27
-19 -14 -27 20 -12 37 16 70 46 61 55 -4 3 -19 1 -34 -6 l-28 -13 33 34 c17
19 32 37 32 41 0 16 -49 4 -112 -26z"/>
<path d="M3225 5870 c-38 -11 -73 -19 -76 -19 -10 -1 -144 -112 -147 -122 -2
-5 -13 -9 -25 -9 -21 0 -21 -1 3 -21 33 -27 160 -89 181 -89 24 0 58 46 52 70
-5 18 -8 17 -59 -11 -67 -38 -95 -28 -31 12 57 35 62 43 47 79 -11 26 -9 33
11 62 l24 33 5 -45 c3 -25 7 -45 10 -45 12 2 109 112 103 118 -9 9 -17 8 -98
-13z"/>
<path d="M4317 5883 c-10 -9 -9 -23 1 -23 5 0 9 7 9 15 0 17 -1 18 -10 8z"/>
<path d="M3965 5820 c3 -5 8 -10 11 -10 2 0 4 5 4 10 0 6 -5 10 -11 10 -5 0
-7 -4 -4 -10z"/>
<path d="M4454 5760 c-46 -21 -84 -49 -67 -50 6 0 15 5 18 10 3 6 11 10 18 10
8 0 8 -3 -1 -12 -15 -15 -16 -31 -1 -22 6 3 15 1 19 -6 6 -10 15 -8 39 6 17
10 31 21 31 25 0 4 10 10 23 14 21 7 21 7 2 12 -11 3 -25 11 -31 18 -8 11 -17
10 -50 -5z"/>
<path d="M4765 5760 c-3 -6 1 -7 9 -4 18 7 21 14 7 14 -6 0 -13 -4 -16 -10z"/>
<path d="M4248 5708 c-37 -43 -43 -65 -11 -35 18 16 58 77 50 77 -2 0 -20 -19
-39 -42z"/>
<path d="M4690 5730 c-13 -8 -13 -10 2 -10 9 0 20 5 23 10 8 13 -5 13 -25 0z"/>
<path d="M3487 5694 c-72 -23 -158 -64 -182 -85 -5 -5 12 -9 41 -9 57 0 145
38 204 89 42 37 37 37 -63 5z"/>
<path d="M4253 5646 c-18 -11 -33 -25 -33 -29 0 -4 15 3 33 15 17 13 34 24 36
25 2 2 2 5 0 7 -2 2 -19 -6 -36 -18z"/>
<path d="M4515 5639 c-12 -18 3 -22 20 -5 14 14 14 16 1 16 -8 0 -18 -5 -21
-11z"/>
<path d="M5287 5612 c-19 -20 -23 -68 -7 -74 11 -3 16 -160 6 -177 -11 -16 10
-21 43 -10 46 16 65 58 50 110 -10 32 -10 42 0 48 20 13 -11 70 -60 108 -13
11 -19 10 -32 -5z"/>
<path d="M3910 5610 c0 -5 -7 -18 -15 -27 -8 -10 -37 -47 -65 -83 -28 -36 -65
-77 -83 -92 -17 -16 -26 -28 -21 -28 6 0 19 9 29 20 19 20 41 28 30 10 -22
-35 78 32 106 71 21 30 41 139 25 139 -3 0 -6 -4 -6 -10z"/>
<path d="M3330 5580 c-12 -8 -11 -10 7 -10 12 0 25 5 28 10 8 13 -15 13 -35 0z"/>
<path d="M4145 5530 c-29 -57 -33 -79 -10 -60 8 7 13 15 10 19 -2 4 7 26 20
49 13 23 20 42 15 42 -5 0 -21 -22 -35 -50z"/>
<path d="M4261 5536 l-24 -31 28 27 c16 15 27 29 24 31 -2 3 -15 -10 -28 -27z"/>
<path d="M3242 5548 c6 -18 22 -20 43 -3 19 14 18 14 -13 15 -22 0 -32 -4 -30
-12z"/>
<path d="M3190 5525 c-7 -9 -10 -19 -6 -22 8 -9 38 9 44 25 5 17 -23 15 -38
-3z"/>
<path d="M4075 5334 c-3 -21 -14 -56 -23 -78 l-16 -38 34 -29 c31 -25 70 -44
70 -33 0 2 -18 20 -40 41 -37 36 -39 39 -25 63 14 25 14 25 15 3 0 -13 5 -23
10 -23 6 0 10 6 10 14 0 8 3 22 7 32 5 14 3 16 -12 11 -15 -6 -17 -3 -12 21 3
15 2 34 -3 42 -6 9 -10 2 -15 -26z"/>
<path d="M3770 5325 c-11 -13 -10 -14 4 -9 9 3 16 10 16 15 0 13 -6 11 -20 -6z"/>
<path d="M3694 5295 c-4 -8 -15 -15 -26 -15 -10 0 -17 -4 -14 -9 4 -5 21 -9
39 -8 25 2 33 7 35 25 4 25 -25 32 -34 7z"/>
<path d="M5068 5303 c-10 -2 -18 -8 -18 -13 0 -7 48 1 85 15 15 5 -47 4 -67
-2z"/>
<path d="M3975 5283 c-3 -9 0 -22 7 -30 10 -13 14 -12 25 3 18 24 16 31 -6 37
-12 3 -22 -1 -26 -10z"/>
<path d="M5317 5253 c-13 -3 -17 -11 -13 -25 3 -15 -3 -27 -20 -40 -18 -15
-24 -29 -24 -59 0 -47 10 -49 74 -13 46 26 65 57 52 90 -5 13 -14 15 -38 10
-20 -4 -29 -3 -23 3 6 5 19 11 29 13 11 1 21 9 24 16 4 12 -24 15 -61 5z"/>
<path d="M3615 5240 c-4 -6 5 -10 19 -10 14 0 26 5 26 10 0 6 -9 10 -19 10
-11 0 -23 -4 -26 -10z"/>
<path d="M3656 5225 c-16 -12 -17 -15 -4 -15 8 0 21 7 28 15 16 19 1 19 -24 0z"/>
<path d="M3497 5216 c-4 -11 -1 -16 11 -16 19 0 54 20 35 20 -6 0 -18 3 -26 6
-8 3 -17 -2 -20 -10z"/>
<path d="M3950 5220 c0 -5 5 -10 10 -10 6 0 10 5 10 10 0 6 -4 10 -10 10 -5 0
-10 -4 -10 -10z"/>
<path d="M4137 5215 c-18 -13 -17 -14 3 -20 26 -8 35 -2 23 18 -7 13 -11 13
-26 2z"/>
<path d="M3440 5185 c0 -8 7 -15 16 -15 14 0 14 3 4 15 -7 8 -14 15 -16 15 -2
0 -4 -7 -4 -15z"/>
<path d="M3955 5187 c-16 -13 -13 -16 36 -40 29 -15 63 -27 76 -27 13 0 23 -4
23 -8 0 -5 13 -9 30 -10 28 -1 29 0 12 17 -9 10 -38 26 -64 36 -26 10 -53 24
-59 31 -14 18 -30 18 -54 1z"/>
<path d="M4175 5170 c-3 -5 1 -10 9 -10 9 0 16 5 16 10 0 6 -4 10 -9 10 -6 0
-13 -4 -16 -10z"/>
<path d="M5068 5144 c-48 -15 -65 -28 -49 -38 5 -4 12 -2 16 4 3 5 11 10 18
10 15 0 -1 -15 -38 -34 -30 -16 -30 -16 36 -16 64 0 67 1 73 26 4 14 2 32 -3
38 -6 7 -8 16 -4 19 8 9 8 9 -49 -9z"/>
<path d="M5260 5050 c8 -5 26 -9 40 -9 23 0 23 1 5 9 -11 5 -29 9 -40 9 -17 1
-17 -1 -5 -9z"/>
<path d="M4840 5033 c-65 -10 -168 -47 -195 -70 -21 -18 -24 -23 -10 -18 11 3
32 9 48 12 15 3 27 9 27 13 0 12 87 38 153 45 32 4 57 8 55 9 -8 7 -55 12 -78
9z"/>
<path d="M4260 4960 c0 -5 7 -7 15 -4 8 4 15 8 15 10 0 2 -7 4 -15 4 -8 0 -15
-4 -15 -10z"/>
<path d="M4318 4954 c5 -9 7 -25 4 -36 -3 -11 4 -27 16 -39 23 -20 37 -25 27
-9 -3 6 -3 16 2 23 4 6 8 24 9 39 1 19 -4 28 -20 32 -38 10 -48 7 -38 -10z"/>
<path d="M4507 4963 c-22 -4 -27 -8 -22 -23 3 -11 1 -28 -5 -40 -15 -29 -7
-26 62 25 l62 45 -34 -1 c-19 -1 -48 -4 -63 -6z"/>
<path d="M3889 4945 c15 -32 40 -61 41 -48 0 7 -12 25 -26 40 -16 18 -22 21
-15 8z"/>
<path d="M3820 4935 c0 -9 70 -105 76 -105 8 0 -12 33 -45 74 -17 21 -31 35
-31 31z"/>
<path d="M4506 4854 c-54 -45 -56 -48 -40 -65 21 -23 42 -26 24 -4 -11 14 -6
23 35 65 27 28 47 50 43 50 -3 0 -31 -21 -62 -46z"/>
<path d="M5556 4821 c-16 -17 -16 -19 1 -23 43 -10 75 21 37 36 -21 8 -19 9
-38 -13z"/>
<path d="M4257 4819 c-18 -11 -18 -19 5 -79 7 -19 11 -21 18 -10 15 24 46 -14
98 -124 44 -92 75 -136 87 -124 3 2 -2 35 -10 74 -8 38 -12 78 -9 90 8 30 -12
64 -37 64 -37 0 -117 50 -128 80 -5 16 -7 31 -4 34 9 9 0 7 -20 -5z"/>
<path d="M5350 4780 c0 -5 5 -10 11 -10 5 0 7 5 4 10 -3 6 -8 10 -11 10 -2 0
-4 -4 -4 -10z"/>
<path d="M5265 4621 c3 -5 -5 -11 -17 -13 -34 -5 -33 -32 2 -72 25 -28 40 -36
66 -36 19 0 34 5 34 10 0 6 7 10 16 10 14 0 15 7 10 42 -8 50 -20 60 -63 55
-17 -1 -29 1 -27 5 3 4 -2 8 -11 8 -9 0 -14 -4 -10 -9z"/>
<path d="M5030 4540 c0 -5 5 -10 10 -10 6 0 10 5 10 10 0 6 -4 10 -10 10 -5 0
-10 -4 -10 -10z"/>
<path d="M5170 4516 c0 -9 -7 -16 -15 -16 -21 0 -19 -34 5 -55 19 -17 20 -17
30 11 6 15 10 37 8 48 -4 24 -28 34 -28 12z"/>
<path d="M4395 4451 c16 -32 5 -50 -15 -26 -7 8 -18 15 -25 15 -25 0 8 -62 47
-86 20 -13 40 -30 45 -38 7 -13 93 -41 93 -30 0 2 -10 27 -21 56 -12 29 -26
68 -31 86 -6 21 -15 32 -28 32 -10 0 -22 5 -25 10 -3 6 -17 10 -31 10 -24 0
-24 -1 -9 -29z"/>
<path d="M5310 4470 c0 -5 14 -10 30 -10 17 0 30 5 30 10 0 6 -13 10 -30 10
-16 0 -30 -4 -30 -10z"/>
<path d="M4850 4452 c6 -13 14 -21 18 -18 3 4 -2 14 -12 24 -18 16 -18 16 -6
-6z"/>
<path d="M4271 4246 c-6 -7 -9 -21 -5 -29 5 -13 9 -14 24 -5 15 10 28 2 89
-54 87 -81 167 -113 254 -102 100 13 105 32 28 108 l-47 46 -80 -8 c-71 -8
-83 -7 -119 12 -44 23 -104 46 -121 46 -6 0 -17 -6 -23 -14z"/>
<path d="M5190 4151 c0 -26 13 -33 45 -25 l25 6 -24 19 c-31 24 -46 24 -46 0z"/>
<path d="M4150 4150 c0 -5 5 -10 10 -10 6 0 10 5 10 10 0 6 -4 10 -10 10 -5 0
-10 -4 -10 -10z"/>
<path d="M5121 4104 c0 -11 3 -14 6 -6 3 7 2 16 -1 19 -3 4 -6 -2 -5 -13z"/>
<path d="M4176 4065 c-10 -57 -24 -81 -47 -81 -13 0 -19 7 -19 23 0 14 6 23
15 23 8 0 15 7 15 15 0 8 -6 15 -13 15 -10 0 -36 -63 -118 -295 -27 -77 -28
-107 -4 -111 11 -2 21 -8 23 -13 2 -6 15 -11 28 -11 19 0 24 5 24 24 0 13 20
84 44 158 45 133 72 256 63 280 -2 7 -8 -5 -11 -27z m-129 -299 c-3 -7 0 -19
6 -25 8 -8 8 -11 0 -11 -7 0 -14 4 -17 9 -6 10 3 41 11 41 3 0 3 -6 0 -14z"/>
<path d="M4880 4058 c0 -12 49 -42 57 -35 1 2 -4 13 -13 25 -16 24 -44 30 -44
10z"/>
<path d="M5196 4005 c4 -8 8 -15 10 -15 2 0 4 7 4 15 0 8 -4 15 -10 15 -5 0
-7 -7 -4 -15z"/>
<path d="M3978 3634 c-5 -4 -8 -23 -7 -43 0 -34 1 -34 10 -11 11 27 8 66 -3
54z"/>
<path d="M3091 3374 c0 -11 3 -14 6 -6 3 7 2 16 -1 19 -3 4 -6 -2 -5 -13z"/>
<path d="M3170 3298 c0 -7 5 -20 10 -28 8 -12 10 -11 10 7 0 12 -4 25 -10 28
-5 3 -10 0 -10 -7z"/>
<path d="M3200 3181 c0 -6 5 -13 10 -16 6 -3 10 1 10 9 0 9 -4 16 -10 16 -5 0
-10 -4 -10 -9z"/>
<path d="M3220 3109 c0 -11 5 -17 10 -14 6 3 10 13 10 21 0 8 -4 14 -10 14 -5
0 -10 -9 -10 -21z"/>
<path d="M3142 3095 c-17 -14 -42 -25 -57 -25 -25 0 -119 -39 -112 -47 2 -1
46 8 98 22 105 28 112 29 105 16 -3 -5 -27 -14 -53 -20 -58 -15 -203 -81 -203
-93 0 -5 12 -30 28 -57 20 -36 31 -46 42 -40 8 4 23 10 33 13 9 3 17 14 17 25
0 21 25 31 85 31 49 0 61 -12 117 -121 69 -136 67 -118 -25 239 -12 45 -27 82
-34 82 -6 0 -25 -11 -41 -25z"/>
<path d="M3240 3056 c0 -9 5 -16 10 -16 6 0 10 4 10 9 0 6 -4 13 -10 16 -5 3
-10 -1 -10 -9z"/>
<path d="M3282 2928 c25 -62 26 -63 35 -55 3 4 1 17 -5 30 -6 12 -16 34 -22
50 -5 15 -14 27 -19 27 -6 0 0 -24 11 -52z"/>
<path d="M3725 2930 c-3 -5 -2 -10 4 -10 5 0 13 5 16 10 3 6 2 10 -4 10 -5 0
-13 -4 -16 -10z"/>
<path d="M3540 2874 c-54 -18 -140 -58 -140 -65 0 -5 -13 -9 -30 -9 -20 0 -30
-5 -30 -15 0 -15 35 -21 44 -7 4 7 91 51 166 85 32 14 25 22 -10 11z"/>
<path d="M2564 2639 c3 -17 6 -39 6 -48 0 -14 2 -14 10 -1 17 26 12 80 -6 80
-13 0 -15 -7 -10 -31z"/>
<path d="M2607 2560 c-4 -18 -13 -30 -23 -30 -8 0 -14 -3 -12 -7 26 -60 113
-222 116 -218 3 2 -16 48 -42 102 -43 88 -45 98 -31 112 14 15 19 12 51 -24
l36 -40 -21 35 c-11 19 -28 50 -36 68 -19 40 -31 41 -38 2z"/>
<path d="M4252 2540 c-20 -32 -14 -45 8 -17 11 14 20 28 20 31 0 13 -16 5 -28
-14z"/>
<path d="M2759 2540 c-1 -8 0 -25 1 -37 1 -13 -3 -23 -9 -23 -6 0 -5 -11 4
-27 7 -16 28 -57 46 -93 18 -36 36 -72 40 -80 5 -8 15 -32 23 -52 9 -22 22
-38 31 -38 9 0 14 3 11 8 -2 4 12 6 32 4 34 -3 339 53 437 80 22 6 58 12 80
13 22 1 55 2 73 3 17 1 32 7 32 13 0 8 -20 10 -67 5 -38 -4 -84 -9 -103 -11
-19 -1 -73 -13 -120 -26 -95 -25 -246 -37 -263 -20 -6 6 -23 11 -37 11 -29 0
-51 23 -83 83 -19 37 -36 65 -109 176 -12 17 -18 21 -19 11z"/>
<path d="M2736 2358 c10 -18 19 -28 21 -21 5 15 -15 53 -28 53 -5 0 -2 -15 7
-32z"/>
<path d="M3595 2310 c-3 -5 3 -10 14 -10 11 0 23 5 26 10 3 6 -3 10 -14 10
-11 0 -23 -4 -26 -10z"/>
<path d="M2779 2262 c5 -16 16 -42 25 -60 9 -17 16 -42 16 -57 0 -14 5 -25 10
-25 19 0 10 51 -20 110 -33 65 -43 76 -31 32z"/>
<path d="M3390 2226 c-30 -7 -71 -18 -90 -24 -19 -6 -69 -16 -110 -22 -41 -7
-128 -23 -192 -38 l-117 -26 -19 -106 c-11 -58 -19 -106 -17 -108 4 -5 58 30
67 43 4 5 2 13 -5 17 -6 4 -15 2 -19 -5 -11 -17 -10 0 1 21 5 9 17 34 27 56
19 38 37 50 104 68 108 29 113 29 128 14 14 -13 13 -19 -9 -50 -16 -25 -32
-36 -48 -36 -14 0 -32 -7 -42 -16 -9 -8 -39 -18 -65 -22 -35 -5 -50 -12 -52
-25 -5 -24 19 -22 83 8 30 14 78 30 107 35 29 4 60 11 68 13 8 3 51 13 95 22
44 10 109 26 144 36 35 11 92 19 128 19 56 0 64 2 61 18 -3 14 -13 17 -68 14
-36 -2 -88 -12 -116 -22 -28 -10 -80 -22 -115 -26 -35 -4 -74 -11 -86 -15 -29
-11 -53 -2 -53 20 0 39 73 79 172 96 21 3 37 11 35 17 -1 7 6 14 16 16 10 2
17 -2 17 -12 0 -8 10 -26 23 -40 18 -21 27 -24 55 -18 18 4 33 10 32 15 0 4 0
11 0 16 0 6 17 11 38 13 29 2 37 7 37 23 0 18 -7 20 -80 22 -44 1 -105 -4
-135 -11z"/>
<path d="M2751 2165 c0 -11 4 -29 9 -40 8 -18 9 -18 9 5 0 14 -4 32 -9 40 -8
12 -10 12 -9 -5z"/>
<path d="M2817 2079 c-4 -15 -11 -20 -25 -17 -15 4 -18 1 -15 -13 3 -11 9 -22
13 -24 14 -9 40 25 40 51 0 30 -6 31 -13 3z"/>
<path d="M2802 1998 c-7 -7 -12 -15 -12 -20 0 -12 28 2 34 18 7 17 -6 18 -22
2z"/>
<path d="M3593 4753 c-13 -2 -23 -9 -23 -14 0 -13 13 -11 36 6 10 8 17 14 14
13 -3 0 -15 -3 -27 -5z"/>
<path d="M3384 4700 c-32 -7 -94 -48 -94 -62 0 -5 -9 -19 -20 -31 -86 -93
-160 -207 -174 -267 -3 -14 5 -2 18 25 27 58 105 141 229 243 48 40 87 77 87
82 0 14 -13 17 -46 10z"/>
<path d="M3460 4660 c0 -5 9 -10 21 -10 11 0 17 5 14 10 -3 6 -13 10 -21 10
-8 0 -14 -4 -14 -10z"/>
<path d="M3212 4580 c0 -14 2 -19 5 -12 2 6 2 18 0 25 -3 6 -5 1 -5 -13z"/>
<path d="M3083 4260 c0 -25 2 -35 4 -22 2 12 2 32 0 45 -2 12 -4 2 -4 -23z"/>
<path d="M3172 3730 c0 -19 2 -27 5 -17 2 9 2 25 0 35 -3 9 -5 1 -5 -18z"/>
<path d="M3486 3563 c-13 -13 -6 -42 9 -37 16 7 20 30 6 38 -4 3 -11 3 -15 -1z"/>
<path d="M3330 3540 c0 -5 5 -10 11 -10 5 0 7 5 4 10 -3 6 -8 10 -11 10 -2 0
-4 -4 -4 -10z"/>
<path d="M4835 3327 c-4 -10 -4 -46 1 -80 4 -34 9 -87 9 -117 2 -61 29 -135
45 -125 8 5 7 12 -2 22 -15 19 -19 57 -19 173 1 90 -19 163 -34 127z"/>
<path d="M5858 1133 c7 -3 16 -2 19 1 4 3 -2 6 -13 5 -11 0 -14 -3 -6 -6z"/>
<path d="M2570 4771 c0 -10 9 -21 19 -24 24 -6 31 0 31 25 0 13 -7 18 -25 18
-18 0 -25 -5 -25 -19z"/>
<path d="M6603 4773 c-33 -6 -28 -20 10 -25 17 -3 40 -8 50 -13 20 -8 24 14 5
33 -12 12 -24 13 -65 5z"/>
<path d="M6635 4570 c-3 -5 1 -10 10 -10 9 0 13 5 10 10 -3 6 -8 10 -10 10 -2
0 -7 -4 -10 -10z"/>
<path d="M505 4429 c-4 -19 -7 -40 -6 -47 1 -7 -8 -16 -21 -22 -30 -12 -9 -12
77 0 137 19 131 16 133 55 2 32 1 35 -26 35 -16 0 -56 3 -89 6 l-60 7 -8 -34z"/>
<path d="M540 4339 c-30 -5 -74 -11 -98 -14 l-43 -6 21 -37 c12 -21 32 -44 45
-52 13 -8 59 -41 103 -72 79 -57 102 -68 102 -48 0 6 4 10 9 10 16 0 102 61
108 77 3 8 -2 31 -11 51 -9 20 -17 42 -18 47 -1 6 -8 15 -16 21 -8 6 -12 16
-8 22 9 14 -108 15 -194 1z"/>
<path d="M819 4038 c-7 -13 -17 -26 -23 -30 -8 -5 -7 -11 2 -20 6 -6 12 -22
12 -34 0 -14 18 -39 46 -66 101 -93 172 -167 166 -172 -10 -11 -57 -5 -82 9
-34 19 -50 18 -50 -3 0 -9 -9 -23 -20 -30 -50 -31 -3 -74 51 -47 24 13 31 13
56 0 15 -8 33 -15 40 -15 14 0 38 37 38 59 0 15 5 18 78 52 50 22 73 54 55 77
-7 8 -7 12 1 12 6 0 11 6 11 14 0 7 18 33 39 58 33 36 37 47 29 63 -18 33 -70
75 -93 75 -4 0 -4 -35 0 -79 10 -118 -16 -121 -88 -11 -69 105 -102 111 -62
12 27 -65 32 -112 14 -112 -19 0 -80 73 -86 104 -4 16 -18 35 -35 46 -16 10
-36 27 -44 39 -20 27 -40 27 -55 -1z"/>
<path d="M699 3863 c-6 -16 -9 -81 -7 -151 3 -141 9 -152 84 -152 54 0 78 9
65 24 -5 6 -11 29 -13 51 -2 31 -8 41 -23 43 -43 7 -66 25 -63 51 3 23 7 26
44 26 39 0 74 17 74 36 0 15 -53 70 -82 85 -42 22 -67 18 -79 -13z"/>
<path d="M1897 3880 c-27 -5 -56 -15 -65 -23 -10 -8 -26 -17 -37 -19 -13 -2
-21 -12 -23 -31 -4 -29 15 -37 25 -11 3 8 15 20 27 25 11 5 28 13 36 18 8 6
44 19 80 29 70 21 48 27 -43 12z"/>
<path d="M2175 3860 c-4 -6 7 -10 27 -10 25 0 29 3 18 10 -19 13 -37 13 -45 0z"/>
<path d="M2302 3770 c0 -14 2 -19 5 -12 2 6 2 18 0 25 -3 6 -5 1 -5 -13z"/>
<path d="M2371 3674 c0 -11 3 -14 6 -6 3 7 2 16 -1 19 -3 4 -6 -2 -5 -13z"/>
<path d="M953 3593 c2 -14 -5 -18 -28 -18 -27 0 -30 -3 -30 -30 0 -25 10 -36
60 -71 33 -24 63 -43 66 -43 11 -1 17 82 8 106 -6 15 -3 23 7 27 21 8 12 31
-12 32 -10 1 -31 5 -46 9 -21 5 -26 3 -25 -12z"/>
<path d="M2149 3491 c-15 -14 -33 -31 -40 -37 -25 -20 -69 -74 -69 -84 0 -11
10 -13 59 -10 43 2 70 33 71 81 0 20 7 42 15 49 14 12 12 31 -3 29 -4 -1 -19
-13 -33 -28z"/>
<path d="M1292 3490 c-28 -17 -33 -25 -30 -53 3 -28 7 -32 33 -33 17 -1 40 -4
53 -8 13 -5 22 -3 22 3 0 6 -5 11 -11 11 -6 0 -9 6 -6 13 2 6 -3 20 -12 31
-15 18 -15 18 19 11 30 -7 33 -6 22 8 -10 12 -10 16 0 21 7 3 3 4 -9 2 -13 -2
-26 0 -29 5 -8 13 -15 11 -52 -11z"/>
<path d="M747 3444 c-5 -6 8 -69 23 -108 12 -34 30 -34 30 0 0 59 -33 127 -53
108z"/>
<path d="M886 3435 c4 -8 10 -12 15 -9 11 6 2 24 -11 24 -5 0 -7 -7 -4 -15z"/>
<path d="M2037 3183 c-4 -3 -7 -11 -7 -17 0 -6 5 -5 12 2 6 6 9 14 7 17 -3 3
-9 2 -12 -2z"/>
<path d="M1731 3120 c0 -8 4 -24 9 -35 5 -13 9 -14 9 -5 0 8 -4 24 -9 35 -5
13 -9 14 -9 5z"/>
</g>
</svg>
